<svg xmlns="http://www.w3.org/2000/svg" xmlns:xlink="http://www.w3.org/1999/xlink" version="1.2" baseProfile="tiny" viewBox="0 0 390 390"><defs><g id="d" class="white rook" fill="#fff" fill-rule="evenodd" stroke="#000" stroke-width="1.5" stroke-linecap="round" stroke-linejoin="round"><path d="M9 39h27v-3H9v3zm3-3v-4h21v4H12zm-1-22V9h4v2h5V9h5v2h5V9h4v5" stroke-linecap="butt"/><path d="m34 14-3 3H14l-3-3"/><path d="M31 17v12.5H14V17" stroke-linecap="butt" stroke-linejoin="miter"/><path d="m31 29.5 1.5 2.5h-20l1.5-2.5"/><path d="M11 14h23" fill="none" stroke-linejoin="miter"/></g><g id="b" class="white king" fill="none" fill-rule="evenodd" stroke="#000" stroke-width="1.5" stroke-linecap="round" stroke-linejoin="round"><path d="M22.5 11.6V6M20 8h5" stroke-linejoin="miter"/><path d="M22.5 25s4.5-7.5 3-10.5c0 0-1-2.5-3-2.5s-3 2.5-3 2.5c-1.5 3 3 10.5 3 10.5" fill="#fff" stroke-linecap="butt" stroke-linejoin="miter"/><path d="M11.5 37a22.3 22.3 0 0 0 21 0v-7s9-4.5 6-10.5c-4-6.5-13.5-3.5-16 4V27v-3.5c-3.5-7.5-13-10.5-16-4-3 6 5 10 5 10V37z" fill="#fff"/><path d="M11.5 30c5.5-3 15.5-3 21 0m-21 3.5c5.5-3 15.5-3 21 0m-21 3.5c5.5-3 15.5-3 21 0"/></g><g id="e" class="black bishop" fill="none" fill-rule="evenodd" stroke="#000" stroke-width="1.5" stroke-linecap="round" stroke-linejoin="round"><path d="M9 36c3.4-1 10.1.4 13.5-2 3.4 2.4 10.1 1 13.5 2 0 0 1.6.5 3 2-.7 1-1.6 1-3 .5-3.4-1-10.1.5-13.5-1-3.4 1.5-10.1 0-13.5 1-1.4.5-2.3.5-3-.5 1.4-2 3-2 3-2zm6-4c2.5 2.5 12.5 2.5 15 0 .5-1.5 0-2 0-2 0-2.5-2.5-4-2.5-4 5.5-1.5 6-11.5-5-15.5-11 4-10.5 14-5 15.5 0 0-2.5 1.5-2.5 4 0 0-.5.5 0 2zM25 8a2.5 2.5 0 1 1-5 0 2.5 2.5 0 1 1 5 0z" fill="#000" stroke-linecap="butt"/><path d="M17.5 26h10M15 30h15m-7.5-14.5v5M20 18h5" stroke="#fff" stroke-linejoin="miter"/></g><g id="c" class="black rook" fill="#000" fill-rule="evenodd" stroke="#000" stroke-width="1.5" stroke-linecap="round" stroke-linejoin="round"><path d="M9 39h27v-3H9v3zm3.5-7 1.5-2.5h17l1.5 2.5h-20zm-.5 4v-4h21v4H12z" stroke-linecap="butt"/><path d="M14 29.5v-13h17v13H14z" stroke-linecap="butt" stroke-linejoin="miter"/><path d="M14 16.5 11 14h23l-3 2.5H14zM11 14V9h4v2h5V9h5v2h5V9h4v5H11z" stroke-linecap="butt"/><path d="M12 35.5h21m-20-4h19m-18-2h17m-17-13h17M11 14h23" fill="none" stroke="#fff" stroke-width="1" stroke-linejoin="miter"/></g><g id="g" class="black king" fill="none" fill-rule="evenodd" stroke="#000" stroke-width="1.5" stroke-linecap="round" stroke-linejoin="round"><path d="M22.5 11.6V6" stroke-linejoin="miter"/><path d="M22.5 25s4.5-7.5 3-10.5c0 0-1-2.5-3-2.5s-3 2.5-3 2.5c-1.5 3 3 10.5 3 10.5" fill="#000" stroke-linecap="butt" stroke-linejoin="miter"/><path d="M11.5 37a22.3 22.3 0 0 0 21 0v-7s9-4.5 6-10.5c-4-6.5-13.5-3.5-16 4V27v-3.5c-3.5-7.5-13-10.5-16-4-3 6 5 10 5 10V37z" fill="#000"/><path d="M20 8h5" stroke-linejoin="miter"/><path d="M32 29.5s8.5-4 6-9.7C34.1 14 25 18 22.5 24.6v2.1-2.1C20 18 9.9 14 7 19.9c-2.5 5.6 4.8 9 4.8 9m-.3 1.1c5.5-3 15.5-3 21 0m-21 3.5c5.5-3 15.5-3 21 0m-21 3.5c5.5-3 15.5-3 21 0" stroke="#fff"/></g><path d="M22.5 9a4 4 0 0 0-3.2 6.4 6.5 6.5 0 0 0-.9 10.6c-3 1-7.4 5.6-7.4 13.5h23c0-8-4.4-12.4-7.4-13.5a6.5 6.5 0 0 0-.9-10.6A4 4 0 0 0 22.5 9z" fill="#fff" stroke="#000" stroke-width="1.5" stroke-linecap="round" id="a" class="white pawn"/><path d="M22.5 9a4 4 0 0 0-3.2 6.4 6.5 6.5 0 0 0-.9 10.6c-3 1-7.4 5.6-7.4 13.5h23c0-8-4.4-12.4-7.4-13.5a6.5 6.5 0 0 0-.9-10.6A4 4 0 0 0 22.5 9z" stroke="#000" stroke-width="1.5" stroke-linecap="round" id="f" class="black pawn"/></defs><path fill="#212121" d="M0 0h390v390H0z"/><path d="M37.5 7.5q-1.3 0-1.8.3t-.5 1q0 .6.4 1 .3.3 1 .3.9 0 1.4-.7.6-.6.6-1.6v-.3zm2.1-.4v3.7h-1v-1q-.4.6-1 .9-.5.3-1.3.3-1 0-1.6-.6-.6-.6-.6-1.5 0-1.1.7-1.7.8-.5 2.3-.5h1.5v-.1q0-.8-.5-1.2-.5-.4-1.4-.4l-1 .1-1.1.4v-1l1.1-.3 1.1-.1q1.4 0 2.1.7.7.8.7 2.3zM37.5 382.5q-1.3 0-1.8.3t-.5 1q0 .6.4 1 .3.3 1 .3.9 0 1.4-.7.6-.6.6-1.6v-.3zm2.1-.4v3.7h-1v-1q-.4.6-1 .9-.5.3-1.3.3-1 0-1.6-.6-.6-.6-.6-1.5 0-1.1.7-1.7.8-.5 2.3-.5h1.5v-.1q0-.8-.5-1.2-.5-.4-1.4-.4l-1 .1-1.1.4v-1l1.1-.3 1.1-.1q1.4 0 2.1.7.7.8.7 2.3zM83.7 7.5q0-1.2-.5-1.8-.5-.7-1.3-.7-.9 0-1.4.7-.5.6-.5 1.8 0 1.2.5 1.9t1.4.7q.8 0 1.3-.7t.5-1.9zM80 5.2q.4-.5.9-.8.5-.3 1.2-.3 1.2 0 2 1 .7.9.7 2.4 0 1.6-.7 2.5-.8 1-2 1-.7 0-1.2-.3t-.9-.9v1h-1V1.7h1zM83.7 382.5q0-1.2-.5-1.8-.5-.7-1.3-.7-.9 0-1.4.7-.5.6-.5 1.8 0 1.2.5 1.9t1.4.7q.8 0 1.3-.7t.5-1.9zm-3.7-2.3q.4-.5.9-.8.5-.3 1.2-.3 1.2 0 2 1 .7.9.7 2.4 0 1.6-.7 2.5-.8 1-2 1-.7 0-1.2-.3t-.9-.9v1h-1v-9.1h1zM129.5 4.5v1l-1-.4-.9-.1q-1 0-1.6.7-.6.6-.6 1.8 0 1.2.6 1.9t1.6.7l1-.2q.4 0 .9-.3v1l-1 .3h-1q-1.5 0-2.3-.9-1-.9-1-2.5t1-2.5q.8-1 2.4-1l1 .2.9.3zM129.5 379.5v1l-1-.4-.9-.1q-1 0-1.6.7-.6.6-.6 1.8 0 1.2.6 1.9t1.6.7l1-.2q.4 0 .9-.3v1l-1 .3h-1q-1.5 0-2.3-.9-1-.9-1-2.5t1-2.5q.8-1 2.4-1l1 .2.9.3zM173.7 5.2V1.7h1.1v9.1h-1v-1q-.4.6-1 .9-.4.3-1.2.3-1.2 0-2-1-.7-1-.7-2.5t.8-2.5q.7-1 2-1 .7 0 1.2.4.5.3.8.8zm-3.6 2.3q0 1.2.4 1.9.5.7 1.4.7.8 0 1.3-.7t.5-1.9q0-1.2-.5-1.8-.5-.7-1.3-.7-.9 0-1.4.7-.4.6-.4 1.8zM173.7 380.2v-3.5h1.1v9.1h-1v-1q-.4.6-1 .9-.4.3-1.2.3-1.2 0-2-1-.7-1-.7-2.5t.8-2.5q.7-1 2-1 .7 0 1.2.4.5.3.8.8zm-3.6 2.3q0 1.2.4 1.9.5.7 1.4.7.8 0 1.3-.7t.5-1.9q0-1.2-.5-1.8-.5-.7-1.3-.7-.9 0-1.4.7-.4.6-.4 1.8zM220 7.3v.5h-5q0 1.1.6 1.7.6.6 1.7.6l1.2-.2 1.2-.4v1l-1.2.4h-1.3q-1.5 0-2.5-.8-.9-1-.9-2.5 0-1.6.9-2.6t2.4-1q1.3 0 2 1 .8.8.8 2.3zm-1.2-.4q0-.8-.5-1.4-.4-.5-1.2-.5-1 0-1.5.5T215 7zM220 382.3v.5h-5q0 1.1.6 1.7.6.6 1.7.6l1.2-.2 1.2-.4v1l-1.2.4h-1.3q-1.5 0-2.5-.8-.9-1-.9-2.5 0-1.6.9-2.6t2.4-1q1.3 0 2 1 .8.8.8 2.3zm-1.2-.4q0-.8-.5-1.4-.4-.5-1.2-.5-1 0-1.5.5t-.6 1.4zM264 1.7v.9h-1q-.6 0-.9.2-.2.3-.2.9v.5h1.8v.9h-1.8v5.7h-1V5.1h-1.1v-.9h1v-.4q0-1.1.5-1.6t1.6-.5zM264 376.7v.9h-1q-.6 0-.9.2-.2.3-.2.9v.5h1.8v.9h-1.8v5.7h-1v-5.7h-1.1v-.9h1v-.4q0-1.1.5-1.6t1.6-.5zM308.7 7.5q0-1.2-.5-1.9-.4-.6-1.3-.6t-1.4.6q-.4.7-.4 1.9 0 1.1.4 1.8.5.6 1.4.6.9 0 1.3-.6.5-.7.5-1.8zm1.1 2.5q0 1.7-.7 2.5-.8.8-2.3.8h-1l-1-.3v-1l.9.3 1 .1q1 0 1.5-.5.5-.6.5-1.7v-.5q-.3.5-.8.8-.5.3-1.3.3-1.2 0-2-1-.7-.8-.7-2.3 0-1.6.8-2.5.7-1 2-1 .7 0 1.2.4t.8.8v-1h1.1zM308.7 382.5q0-1.2-.5-1.9-.4-.6-1.3-.6t-1.4.6q-.4.7-.4 1.9 0 1.1.4 1.8.5.6 1.4.6.9 0 1.3-.6.5-.7.5-1.8zm1.1 2.5q0 1.7-.7 2.5-.8.8-2.3.8h-1l-1-.3v-1l.9.3 1 .1q1 0 1.5-.5.5-.6.5-1.7v-.5q-.3.5-.8.8-.5.3-1.3.3-1.2 0-2-1-.7-.8-.7-2.3 0-1.6.8-2.5.7-1 2-1 .7 0 1.2.4t.8.8v-1h1.1zM354.6 6.8v4h-1v-4q0-.8-.4-1.3T352 5q-.9 0-1.4.6-.5.5-.5 1.5v3.7h-1V1.7h1v3.6q.4-.6 1-1 .4-.2 1.1-.2 1.2 0 1.7.7.6.7.6 2zM354.6 381.8v4h-1v-4q0-.8-.4-1.3t-1.1-.5q-.9 0-1.4.6-.5.5-.5 1.5v3.7h-1v-9.1h1v3.6q.4-.6 1-1 .4-.2 1.1-.2 1.2 0 1.7.7.6.7.6 2zM5 355.2h2v-6.6l-2.1.4v-1l2-.5h1.3v7.7H10v1h-5zM380 355.2h2v-6.6l-2.1.4v-1l2-.5h1.3v7.7h1.9v1h-5zM6.1 310.2h4.2v1H4.7v-1l1.9-1.8 1.4-1.5.8-1.1.2-.9q0-.7-.5-1.1-.4-.5-1.2-.5l-1.2.2-1.3.6V303l1.3-.4 1.2-.2q1.3 0 2.1.7t.8 1.8q0 .6-.2 1l-.7 1.2-1 1-2.2 2.2zM381.1 310.2h4.2v1h-5.6v-1l1.9-1.8 1.4-1.5.8-1.1.2-.9q0-.7-.5-1.1-.4-.5-1.2-.5l-1.2.2-1.3.6V303l1.3-.4 1.2-.2q1.3 0 2.1.7t.8 1.8q0 .6-.2 1l-.7 1.2-1 1-2.2 2.2zM8.6 261.5q.8.2 1.3.8.5.6.5 1.4 0 1.3-1 2-.8.7-2.4.7l-1.2-.1-1.2-.3v-1.2l1.1.5 1.2.1q1.1 0 1.7-.4.6-.5.6-1.3t-.5-1.2q-.6-.4-1.5-.4h-1v-1h1q.9 0 1.3-.4.5-.3.5-1 0-.6-.5-1t-1.3-.4l-1 .1-1.3.4v-1l1.2-.4h1.2q1.3 0 2 .6.9.6.9 1.6 0 .7-.4 1.2-.5.5-1.2.7zM383.6 261.5q.8.2 1.3.8.5.6.5 1.4 0 1.3-1 2-.8.7-2.4.7l-1.2-.1-1.2-.3v-1.2l1.1.5 1.2.1q1.1 0 1.7-.4.6-.5.6-1.3t-.5-1.2q-.6-.4-1.5-.4h-1v-1h1q.9 0 1.3-.4.5-.3.5-1 0-.6-.5-1t-1.3-.4l-1 .1-1.3.4v-1l1.2-.4h1.2q1.3 0 2 .6.9.6.9 1.6 0 .7-.4 1.2-.5.5-1.2.7zM8.3 213.5l-3 4.7h3zm-.3-1h1.4v5.7h1.3v1H9.4v2H8.3v-2h-4V218zM383.3 213.5l-3 4.7h3zm-.3-1h1.4v5.7h1.3v1h-1.3v2h-1.1v-2h-4V218zM5 167.5h4.7v1H6v2.1h.5l.6-.1q1.4 0 2.3.8.8.8.8 2.1 0 1.4-.8 2.2-1 .8-2.5.8H5.8l-1.1-.4v-1.2l1 .5 1.2.1q1 0 1.7-.5.5-.5.5-1.5 0-.9-.5-1.4-.6-.5-1.7-.5H6l-1 .4zM380 167.5h4.7v1H381v2.1h.5l.6-.1q1.4 0 2.3.8.8.8.8 2.1 0 1.4-.8 2.2-1 .8-2.5.8h-1.2l-1.1-.4v-1.2l1 .5 1.2.1q1 0 1.7-.5.5-.5.5-1.5 0-.9-.5-1.4-.6-.5-1.7-.5h-.9l-1 .4zM7.6 126.4q-.8 0-1.3.5-.4.6-.4 1.5 0 1 .4 1.5.5.6 1.3.6t1.3-.6q.4-.5.4-1.5T9 127q-.5-.5-1.3-.5zm2.4-3.7v1l-1-.3h-.8q-1.2 0-1.8.7-.7.8-.7 2.4.3-.5.8-.8.5-.2 1.2-.2 1.3 0 2 .8.8.8.8 2.1 0 1.4-.8 2.2-.8.8-2.1.8-1.5 0-2.3-1.1-.8-1.2-.8-3.4 0-2.1 1-3.3 1-1.3 2.6-1.3l.9.1 1 .3zM382.6 126.4q-.8 0-1.3.5-.4.6-.4 1.5 0 1 .4 1.5.5.6 1.3.6t1.3-.6q.4-.5.4-1.5t-.4-1.5q-.5-.5-1.3-.5zm2.4-3.7v1l-1-.3h-.8q-1.2 0-1.8.7-.7.8-.7 2.4.3-.5.8-.8.5-.2 1.2-.2 1.3 0 2 .8.8.8.8 2.1 0 1.4-.8 2.2-.8.8-2.1.8-1.5 0-2.3-1.1-.8-1.2-.8-3.4 0-2.1 1-3.3 1-1.3 2.6-1.3l.9.1 1 .3zM4.7 77.5h5.6v.5l-3.2 8.2H6l3-7.7H4.7zM379.7 77.5h5.6v.5l-3.2 8.2H381l3-7.7h-4.2zM7.5 37q-.8 0-1.3.5t-.5 1.3.5 1.2q.5.5 1.3.5t1.3-.5q.5-.4.5-1.2 0-.8-.5-1.3-.5-.4-1.3-.4zm-1.2-.4q-.7-.2-1.2-.7-.4-.5-.4-1.3 0-1 .7-1.7.8-.6 2.1-.6t2 .6q.8.7.8 1.7 0 .8-.4 1.3-.5.5-1.2.7.8.2 1.3.8.5.5.5 1.4 0 1.3-.8 2-.8.6-2.2.6t-2.2-.7q-.8-.6-.8-2 0-.8.5-1.3.5-.6 1.3-.8zM6 34.7q0 .7.4 1 .4.5 1.2.5.8 0 1.2-.4.4-.4.4-1 0-.8-.4-1.1-.4-.4-1.2-.4-.8 0-1.2.4-.4.3-.4 1zM382.5 37q-.8 0-1.3.5t-.5 1.3.5 1.2q.5.5 1.3.5t1.3-.5q.5-.4.5-1.2 0-.8-.5-1.3-.5-.4-1.3-.4zm-1.2-.4q-.7-.2-1.2-.7-.4-.5-.4-1.3 0-1 .7-1.7.8-.6 2.1-.6t2 .6q.8.7.8 1.7 0 .8-.4 1.3-.5.5-1.2.7.8.2 1.3.8.5.5.5 1.4 0 1.3-.8 2-.8.6-2.2.6t-2.2-.7q-.8-.6-.8-2 0-.8.5-1.3.5-.6 1.3-.8zm-.4-1.9q0 .7.4 1 .4.5 1.2.5.8 0 1.2-.4.4-.4.4-1 0-.8-.4-1.1-.4-.4-1.2-.4-.8 0-1.2.4-.4.3-.4 1z" fill="#e5e5e5" stroke="#e5e5e5" stroke-width=".75"/><path class="square dark a1" fill="#d18b47" d="M15 330h45v45H15z"/><path class="square light b1" fill="#ffce9e" d="M60 330h45v45H60z"/><path class="square dark c1" fill="#d18b47" d="M105 330h45v45h-45z"/><path class="square light d1" fill="#ffce9e" d="M150 330h45v45h-45z"/><path class="square dark e1" fill="#d18b47" d="M195 330h45v45h-45z"/><path class="square light f1" fill="#ffce9e" d="M240 330h45v45h-45z"/><path class="square dark g1" fill="#d18b47" d="M285 330h45v45h-45z"/><path class="square light h1" fill="#ffce9e" d="M330 330h45v45h-45z"/><path class="square light a2" fill="#ffce9e" d="M15 285h45v45H15z"/><path class="square dark b2" fill="#d18b47" d="M60 285h45v45H60z"/><path class="square light c2" fill="#ffce9e" d="M105 285h45v45h-45z"/><path class="square dark d2" fill="#d18b47" d="M150 285h45v45h-45z"/><path class="square light e2" fill="#ffce9e" d="M195 285h45v45h-45z"/><path class="square dark f2" fill="#d18b47" d="M240 285h45v45h-45z"/><path class="square light g2" fill="#ffce9e" d="M285 285h45v45h-45z"/><path class="square dark h2" fill="#d18b47" d="M330 285h45v45h-45z"/><path class="square dark a3" fill="#d18b47" d="M15 240h45v45H15z"/><path class="square light b3" fill="#ffce9e" d="M60 240h45v45H60z"/><path class="square dark c3" fill="#d18b47" d="M105 240h45v45h-45z"/><path class="square light d3" fill="#ffce9e" d="M150 240h45v45h-45z"/><path class="square dark e3" fill="#d18b47" d="M195 240h45v45h-45z"/><path class="square light f3" fill="#ffce9e" d="M240 240h45v45h-45z"/><path class="square dark g3" fill="#d18b47" d="M285 240h45v45h-45z"/><path class="square light h3" fill="#ffce9e" d="M330 240h45v45h-45z"/><path class="square light a4" fill="#ffce9e" d="M15 195h45v45H15z"/><path class="square dark b4" fill="#d18b47" d="M60 195h45v45H60z"/><path class="square light c4" fill="#ffce9e" d="M105 195h45v45h-45z"/><path class="square dark d4" fill="#d18b47" d="M150 195h45v45h-45z"/><path class="square light e4" fill="#ffce9e" d="M195 195h45v45h-45z"/><path class="square dark f4" fill="#d18b47" d="M240 195h45v45h-45z"/><path class="square light g4" fill="#ffce9e" d="M285 195h45v45h-45z"/><path class="square dark h4" fill="#d18b47" d="M330 195h45v45h-45z"/><path class="square dark a5" fill="#d18b47" d="M15 150h45v45H15z"/><path class="square light b5" fill="#ffce9e" d="M60 150h45v45H60z"/><path class="square dark c5" fill="#d18b47" d="M105 150h45v45h-45z"/><path class="square light d5" fill="#ffce9e" d="M150 150h45v45h-45z"/><path class="square dark e5" fill="#d18b47" d="M195 150h45v45h-45z"/><path class="square light f5" fill="#ffce9e" d="M240 150h45v45h-45z"/><path class="square dark g5" fill="#d18b47" d="M285 150h45v45h-45z"/><path class="square light h5" fill="#ffce9e" d="M330 150h45v45h-45z"/><path class="square light a6" fill="#ffce9e" d="M15 105h45v45H15z"/><path class="square dark b6" fill="#d18b47" d="M60 105h45v45H60z"/><path class="square light c6" fill="#ffce9e" d="M105 105h45v45h-45z"/><path class="square dark d6" fill="#d18b47" d="M150 105h45v45h-45z"/><path class="square light e6" fill="#ffce9e" d="M195 105h45v45h-45z"/><path class="square dark f6" fill="#d18b47" d="M240 105h45v45h-45z"/><path class="square light g6" fill="#ffce9e" d="M285 105h45v45h-45z"/><path class="square dark h6" fill="#d18b47" d="M330 105h45v45h-45z"/><path class="square dark a7" fill="#d18b47" d="M15 60h45v45H15z"/><path class="square light b7" fill="#ffce9e" d="M60 60h45v45H60z"/><path class="square dark c7" fill="#d18b47" d="M105 60h45v45h-45z"/><path class="square light d7" fill="#ffce9e" d="M150 60h45v45h-45z"/><path class="square dark e7" fill="#d18b47" d="M195 60h45v45h-45z"/><path class="square light f7" fill="#ffce9e" d="M240 60h45v45h-45z"/><path class="square dark g7" fill="#d18b47" d="M285 60h45v45h-45z"/><path class="square light h7" fill="#ffce9e" d="M330 60h45v45h-45z"/><path class="square light a8" fill="#ffce9e" d="M15 15h45v45H15z"/><path class="square dark b8" fill="#d18b47" d="M60 15h45v45H60z"/><path class="square light c8" fill="#ffce9e" d="M105 15h45v45h-45z"/><path class="square dark d8" fill="#d18b47" d="M150 15h45v45h-45z"/><path class="square light e8" fill="#ffce9e" d="M195 15h45v45h-45z"/><path class="square dark f8" fill="#d18b47" d="M240 15h45v45h-45z"/><path class="square light g8" fill="#ffce9e" d="M285 15h45v45h-45z"/><path class="square dark h8" fill="#d18b47" d="M330 15h45v45h-45z"/><use href="#a" xlink:href="#a" transform="translate(150 285)"/><use href="#b" xlink:href="#b" transform="translate(150 240)"/><use href="#c" xlink:href="#c" transform="translate(60 195)"/><use href="#d" xlink:href="#d" transform="translate(150 195)"/><use href="#a" xlink:href="#a" transform="translate(240 195)"/><use href="#e" xlink:href="#e" transform="translate(285 195)"/><use href="#f" xlink:href="#f" transform="translate(150 60)"/><use href="#g" xlink:href="#g" transform="translate(150 15)"/><path stroke="#15781B" opacity=".5" stroke-width="9" class="arrow" d="M172.5 217.5h-69.7"/><path fill="#15781B" opacity=".5" class="arrow" d="m82.5 217.5 20.3 14.9v-29.7z"/><path stroke="#15781B" opacity=".5" stroke-width="9" class="arrow" d="M172.5 217.5h69.8"/><path fill="#15781B" opacity=".5" class="arrow" d="m262.5 217.5-20.2-14.8v29.7z"/><path stroke="#15781B" opacity=".5" stroke-width="9" class="arrow" d="M172.5 217.5V102.8"/><path fill="#15781B" opacity=".5" class="arrow" d="m172.5 82.5-14.8 20.3h29.7z"/><path stroke="#15781B" opacity=".5" stroke-width="9" class="arrow" d="M172.5 217.5v24.8"/><path fill="#15781B" opacity=".5" class="arrow" d="m172.5 262.5 14.9-20.2h-29.7z"/></svg>