<svg version="1.0" width="502pt" height="682pt" viewBox="0 0 502 682" xmlns="http://www.w3.org/2000/svg"><path d="M.00273438.00273C-.39726564.30273 0 123.7 0 273.2V545h502l-.2-272.2.21376-272.81376L251.4.2C113.9.1.30273437-.39727.00273437.00273ZM498 273v269H4V4h494z"/><path d="M259 38.9c-5 1.6-11.6 5.4-14.8 8.4l-3.2 3.1-1.5-2.1c-3.8-5.5-13.9-8.7-22.2-7.2-5.8 1.1-14.4 5-17.3 7.9l-2.1 2.1-2-2.5c-1.1-1.4-4.4-3.7-7.5-5.2-4.5-2.2-6.4-2.6-10.3-2.1-5.4.6-15.6 4.9-18.6 7.7-2.1 2-2.1 2-6-2-4.1-4.2-10.9-7-17.1-7-5.2 0-15.5 3.7-21.2 7.5l-5.3 3.6-2.9-2.5c-4.5-3.7-9.4-4.9-17.1-4.2-13.5 1.2-22 6.4-23.5 14.1-.5 2.8-1.2 3.6-4.1 4.6-4.2 1.3-9.9 6.2-11.9 10-2.3 4.6-1.8 13 1.1 17.3l2.5 3.7-3.4 2.9c-4.2 3.7-7.1 9.8-8.6 17.9-1.4 7.7-.7 11.3 3.1 15.6l3 3.3-3 2.1c-4.6 3.3-7.5 10.2-6.8 16.6.7 7.3 2.9 11 7.7 13.1 4.4 2 4.7 2.5 2.4 4.5-3.3 2.7-6.7 11.2-6.8 16.9 0 6.8 1.9 11 6 13.1 3.1 1.5 3.1 1.6 1.6 4.5-.8 1.6-1.7 6.3-1.9 10.4-.4 6.2-.1 8 1.6 10.7 2.4 3.7 7 6.5 12.5 7.2 3.5.5 4.1 1 5.3 4.6 3.6 10.6 14.9 14.8 25.3 9.5 4.2-2.2 4.5-2.2 5.5-.5 2.5 4.5 8.4 10 12.4 11.8 8.6 3.8 21 2.3 28.2-3.4l3.7-2.8 2.2 2.4c1.2 1.3 4.4 3.3 7.1 4.4 10.3 4.5 19.6 3.7 28-2.3l4.6-3.3 5.7 3.5c9.8 6.1 22.4 5.5 30.3-1.3l3.8-3.2 3.5 2.3c11.2 7.4 25.8 7 36.2-.9 4.3-3.3 4.3-3.3 7.4-1.5 1.6 1 6.1 2.2 9.9 2.7 8.4 1.2 15.3 0 18.9-3.4l2.5-2.3 3.6 2.8c6.4 5.1 18.7 5.4 26.5.6 2.5-1.5 5.3-3.2 6.2-3.9 1.4-.9 2.3-.8 4.5.6 4.7 3 9.3 4.8 17.1 6.5 6.9 1.5 7.9 1.5 14-.1 3.6-1 8-2.9 9.8-4.2l3.3-2.5 3.7 2.5c4.1 2.8 9.4 4.5 13.9 4.5 7.7 0 18.5-5.4 21.7-10.8 1.6-2.7 2.1-2.9 6.7-2.4 11.1 1 20.8-3.7 24.7-12.1 3.9-8.6 2.8-17.6-3.1-24.4l-3.2-3.7 3.7-2.7c3.9-2.8 9-11.6 9-15.5 0-3.4-2.9-10.6-5.3-13.2-2.5-2.7-8.8-6.2-11.2-6.2-2.3 0-1.8-1.3 2.1-5.1 5.4-5.2 7.4-9.8 7.4-17.1 0-8-2.5-13.6-7.6-17.4-2.2-1.5-4.3-3.1-4.7-3.5-.5-.4 0-2.4 1.1-4.5 4.2-8.3 4.8-18.1 1.6-24.5-1.9-3.7-7.6-8.5-11.9-9.9-3.6-1.2-11.3-1-14.5.4-1.2.5-1.4-.2-1.2-4.2 1.2-17.2-13.7-28.4-29.9-22.6-4 1.4-4.5 1.4-5.4-.2-6.4-10.6-14.3-15.4-26.6-16.2-8.1-.5-11.4.6-17.1 5.4l-2.8 2.3-5.1-3.4c-12.3-8.3-25.3-7.1-38.1 3.6l-4.6 3.9-4.3-4c-8.5-7.8-19.6-11.5-26.9-9.1zm15.2 4.5c6.5 3.1 12.8 9.4 12.8 12.7 0 1.6.3 2.9.6 2.9.4 0 3.7-2.8 7.3-6.3 8.9-8.4 12.8-10.2 21.6-10.2 8 .1 13.6 2.4 17.8 7.5 1.4 1.6 2.9 3 3.2 3 .3 0 1.8-1.4 3.2-3 10.1-12 32.6-7.9 40.4 7.2 2.2 4.2 3.5 4.6 9.9 2.3 8.3-2.9 14.1-1.7 20.3 4.3 4.6 4.5 6.1 9.5 5.2 17.9-.4 3.8-.3 6.3.3 6.3.5 0 2.9-.7 5.2-1.5 5.8-2 9.6-1.9 14.7.6 10 4.8 12.6 17 6.3 29.2-1.1 2-2 4.4-2 5.2 0 .7 2 2.8 4.5 4.6 5.7 4.1 8.5 9.7 8.5 17 0 6.7-3.5 12.8-9.8 17.4-2.3 1.6-4.1 3.6-3.9 4.4.1.8 2.3 2 4.9 2.7 8.8 2.2 12.8 5.9 15.3 14.2 1.2 4.2-2.1 10.7-8.3 16.1l-5.7 5 4.1 4.3c6.5 6.8 8 13.7 4.5 21.3-3.8 8.5-11.7 12.2-23.3 11-6-.5-6.8-.4-6.8 1.1 0 2.8-7.5 9.1-13.1 10.9-8.2 2.8-17 .7-22.6-5.3l-2.4-2.6-3.7 3.6c-5 4.7-9.4 6.3-17.2 6.2-7.5-.1-14.5-2.3-21.3-6.6l-4.8-3.1-6 4.2c-9.9 7-20.5 7.4-27.8 1-4.1-3.6-4.8-3.6-8.2-.3-3.7 3.6-9.6 4.7-17.2 3.3-6.5-1.1-11.7-3.3-11.7-4.9 0-2-2.4-.9-6.5 2.9-2.7 2.5-6.3 4.6-9.6 5.5-9.6 2.9-16.5 1.8-24.9-4l-5.2-3.6-2.8 3c-8.6 9.5-22.7 9.6-33.2.3l-3.7-3.2-4.3 4.4c-5.1 5.1-11.5 7.3-18 6.3-5.9-.9-14.3-5.1-16.2-8.1-1.8-2.7-4-3.2-5.3-1.2-2 3.2-7.7 6.6-12.6 7.7-10.4 2.1-20.3-2.1-25.8-11-1.7-2.8-3.5-5-4.1-5-.5 0-2.4 1-4.1 2.2-4.4 3.2-13.1 3.6-17.5.8-3.2-2-6.2-7.2-6.5-11.2-.1-1.9-.8-2.1-8.1-3.3-2.6-.4-5.1-1.8-7.4-4.1-3.4-3.4-3.5-3.6-3-10.3.4-4.9 1.2-8 3.2-11.4 2.9-4.9 2.8-5.3-2.3-5.9-3.8-.5-6.5-5-6.4-10.6.1-5.6 2.8-11.6 7.8-17.1 4.5-5 4.4-6.1-.6-6.1-5.5 0-9.5-3.9-10.4-10.3-1-6.4.8-11 6.1-15.4 2.4-2.1 4.4-4 4.4-4.3 0-.3-1.5-2.3-3.4-4.3-4.5-4.9-4.9-7.3-3.1-15.9 1.6-7.9 4.7-12.7 10.8-16.7l3.7-2.4-4-4.3c-3.5-3.8-4-4.9-4-9.2 0-3.8.6-5.8 2.9-8.9 3.1-4.3 9.4-7.6 13-6.6 1.9.5 2.1.2 1.9-4.2-.2-4.3.1-5 3.4-8 4.1-3.8 8.5-5.3 17.8-6.2 5.5-.5 7.3-.2 10.7 1.5 2.3 1.2 5.1 3.5 6.2 5.1l2.2 3 4.3-4.3c5.8-5.8 14-9.1 22.7-9 8 .1 12.4 2.4 17 9 1.6 2.4 3.2 4.4 3.4 4.4.3 0 1.2-1.4 2-3.1 1.9-3.6 11.5-8.5 18.6-9.5 5.7-.8 11.2 1.8 16.2 7.6l3.5 4.2 4-4c4.6-4.6 13.6-8.4 20.2-8.4 6.4 0 11.1 2.3 15.5 7.5l3.8 4.6 4.1-4.6c5.4-6.1 14.5-10.6 20.6-10 2.5.2 6.2 1.2 8.2 2.1z"/><path d="M238.5 79.2c-.3 1.8-.9 6.9-1.3 11.3l-.7 8-3-5c-1.6-2.8-3.7-6.7-4.7-8.8-1.8-3.6-3.2-4.6-4.2-2.9-.3.4-.6 5.3-.7 10.8-.1 7.9.1 9.9 1.2 9.9 1 0 1.5-1.8 1.9-6.4l.5-6.4 4.5 6.9c6.2 9.5 7.3 9.2 8.1-2.1.4-5 .8-11 1-13.4.5-5.3-1.7-6.9-2.6-1.9zM272.5 77.2c-.3.7-.6 5.8-.7 11.3l-.3 10-3.3-4.4c-1.8-2.5-4-6.6-5-9.3-.9-2.6-2.2-4.8-2.8-4.8-1.4 0-2.4 6.9-2.4 16.1 0 10.5 2.6 8.8 3.2-2.1l.3-4.5 4 6c4.4 6.6 7.8 8.3 8.9 4.3 1-4 .7-23.8-.4-23.8-.6 0-1.3.6-1.5 1.2zM81.7 78.7c-.3.5-.5 5-.5 10.1-.1 9 1 14.8 2.6 13.9.6-.5.8-12 .4-21.5-.2-2.9-1.5-4.2-2.5-2.5zM87.7 78.7c-.9.8-.9 10.2-.1 18.2.5 4.4 1.1 6.1 2.1 6.1 1.2 0 1.4-1.1 1.1-4.9l-.3-5 4.8-.6c6-.9 5.7-3-.4-3h-4.4l-.3-4.3-.3-4.2h7.5c6.1 0 7.6-.3 7.6-1.5s-1.6-1.5-8.3-1.5c-4.6 0-8.7.3-9 .7zM151 82.2c-2.4 5.6-6 19-5.3 20.1.9 1.5 3.2-1.4 3.9-4.9.5-2.9 1.1-3.4 4.8-4.2 5-1.1 6.1-.2 7.3 5.8.6 3 1.4 4.6 2.6 4.8 1.9.4 2 .6-.9-11.3-.8-3.3-2.6-7.9-4-10.2-3.3-5.7-5.9-5.7-8.4-.1zm6.6 2.9c1.8 3.5.9 4.9-3.3 4.9-2.6 0-2.7-.5-1.2-4.9 1.4-3.9 2.4-3.9 4.5 0zM171.3 79.5c-3.5 1.5-5.3 4.1-5.3 7.8 0 3.9 2.2 4.9 8.4 4.2 5.4-.7 5.6-.7 5.6 1.7 0 3.1-2.6 6.8-4.8 6.8-.9 0-3-.7-4.6-1.5-1.6-.9-3.3-1.2-3.8-.7-1.3 1.3 2.6 4.2 6.5 4.9 3.1.5 4 .1 6.7-2.5 2.2-2.2 3-4 3-6.5 0-4.9-1.9-6.1-8.5-5.2-5 .6-5.5.5-5.5-1.3 0-3.6 6.8-7.4 9.5-5.2 1.8 1.5 3.1-.6 1.5-2.5-1.5-1.8-4.5-1.8-8.7 0zM210.1 79.6c-5 3.5-6.5 12.5-3.1 18.2 4.9 8 13.6 5.5 15.6-4.5.5-2.5.2-3.3-1.6-4.3-2.6-1.4-7.3-.5-6.7 1.3.2.7 1.4 1.1 2.5.9 1.8-.3 2.2.2 2.2 2.2 0 1.4-.9 3.5-2 4.6-4.1 4.1-9.9-2.2-8.6-9.3 1.2-6.3 7.4-10 10.6-6.2 1.7 2.1 3 1.9 3-.5 0-3.9-7.6-5.4-11.9-2.4zM290.9 78.7c0 .5 0 3 .1 5.6.2 7.4-5.5 17.4-8.9 15.3-1.3-.8-1.9-8.7-1.1-14 .8-5.1.4-6.1-1.7-4.5-2 1.7-1.8 16.8.3 19.7 4.4 6.3 13.7-2.9 14.4-14.3.4-6.6.1-8.5-1.5-8.5-.8 0-1.5.3-1.6.7zM356.8 78.6c-1 .3-1.8.9-1.8 1.2-.7 9.6-.2 22.6.7 22.9.8.3 1.5-1.4 1.9-4.6l.6-5 3.2 1.6c4 2 7.6 5.3 7.6 7 0 .7.7 1.3 1.5 1.3 3.9 0-.2-7.3-5.9-10.5-1.7-1-1.5-1.3 2.2-3.7 4.6-3.1 6.1-6.3 4-8.5-1.5-1.4-10.9-2.6-14-1.7zm11 3.2c1.5 1-1.6 4.2-6.3 6.6l-3 1.6-.5-3.8c-.3-2-.4-4-.2-4.5.4-.9 8.4-.9 10 .1zM120.3 79.7c-4.3.6-4.5 3.3-.3 3.3 2.9 0 3 .2 3 4.2 0 2.4-.3 6-.7 8.1-.5 3.4-.9 3.8-2.9 3.3-2.8-.7-3.9.7-1.9 2.4.9.8 2.8 1 5 .6 1.9-.3 5.1-.9 7-1.2 2.2-.4 3.5-1.2 3.5-2.1 0-1.2-.9-1.4-4.1-1-3.8.5-4.1.4-3.5-1.6.3-1.2.6-4.8.6-8V82h3.5c2.4 0 3.5-.5 3.5-1.5 0-1.5-4.6-1.8-12.7-.8zM187.7 81.2c-3.5 2.6-5.2 6.5-3.6 8.4.7.9 2.5 1.1 6 .7 5.6-.7 6.8.6 5.3 5.9-1.5 5-3.8 5.8-7.3 2.4-3.2-3.1-5.8-2.8-4.1.5 1.5 2.7 6.8 5.2 9.6 4.5 4.9-1.3 7.3-11.6 3.4-15.1-1.3-1.2-3.1-1.6-6-1.3-4.6.4-4.9 0-1.6-3.1 1.7-1.6 3-2 5-1.5 2.8.7 3.4-.4 1.4-2.4-1.8-1.8-4.9-1.4-8.1 1zM310.5 80.7c-.7 1-2.2 2.9-3.3 4.2-2.3 3-4.5 2.4-6.3-1.8-2.3-5.2-3.6-3.7-4.3 4.6-.4 4.3-.9 9-1.2 10.5-.4 2-.2 2.8.9 2.8 1.9 0 2.7-2.2 2.7-7.5 0-4.3 1.2-6.5 2.5-4.5.3.5 1.9 1 3.5 1 2.2 0 3.3-.8 5-3.5 1.2-1.9 2.4-3.5 2.7-3.5.3 0 .4 4.1.2 9.2-.3 6.1 0 9.2.7 9.5 1.5.5 2.4-4.4 2.4-13.1 0-8.9-2.1-11.9-5.5-7.9zM341 79.7c-1.4.2-3.4.8-4.5 1.4-1.4.7-3 .7-4.9 0-6.9-2.7-16.7-.4-13.8 3.2.6.7 1.2 5.1 1.4 9.7l.3 8.5 3.9.3c4.8.4 8.3-1.3 10.2-5 1.6-3.2.7-6.1-2.3-7.2-1.6-.7-1.5-.9.7-2.6 1.4-1.1 2.9-2 3.3-2 .5 0 .7 3.8.5 8.4l-.3 8.4 8.8-.2c7.2-.1 8.7-.4 8.5-1.6-.3-1.2-1.9-1.5-7.1-1.5h-6.8l.3-4c.3-3.7.6-4 3.6-4.5 4.1-.6 3.8-2.5-.5-2.4-2.6.1-3.3-.3-3.8-2.4-.3-1.3-.4-2.6-.1-2.9.2-.3 3.2-.7 6.6-1 3.8-.4 5.9-1 5.7-1.7-.4-1.2-5.5-1.7-9.7-.9zm-10.5 4c1.6.5 1.1 1.1-3 2.9l-5 2.3-.8-2.1c-1.7-4.7.5-5.5 8.8-3.1zm-1.2 9.5c.9.5 1.7 1.5 1.7 2.2 0 2.1-3.7 4.8-6.2 4.4-1.9-.2-2.3-1-2.6-4.6-.3-4.2-.3-4.3 2.5-3.6 1.5.4 3.6 1.1 4.6 1.6z"/><path d="M377.3 80.9c-4.6 2.9-6.9 6.7-5.2 8.7 1 1.2 2.7 1.5 7.3 1.2 7-.4 8.1 1 4.6 5.5-2.4 3-8 3.9-8 1.2 0-.8-.7-1.5-1.5-1.5-2.2 0-1.8 3.7.4 5 6.2 3.3 14.1-1.9 14.1-9.2 0-3.7-2.8-5-9-4.2-3.5.5-5 .3-5-.5 0-1.9 6.3-5.2 9.5-4.9 2.1.2 3-.1 3-1.2 0-2.4-6.4-2.4-10.2-.1zM201 90.9c0 9.3.2 11.1 1.5 11.1s1.5-1.6 1.3-10.7c-.2-7.4-.7-10.8-1.5-11.1-1-.3-1.3 2.3-1.3 10.7zM248.8 117.7c-3.8 1-5.8 2-5.8 3 0 1.2.8 1.4 3.7.8l3.6-.6-.7 11.5c-.6 9.6-.4 11.6.7 11.6 1.7 0 2.7-6.1 2.7-16.6 0-8-.1-7.8 6.9-8.6 1.4-.2 2.6-.9 2.9-1.6.5-1.7-6.7-1.4-14 .5zM220.3 118c-1.2.5-2.4 2.2-2.8 4-.7 3.2-.7 3.2-1.9.9-1.3-2.7-5-4.9-8.3-4.9-5.7 0-9.9 11.3-6.8 18.5 1.9 4.6 3 5.5 7.1 5.5 3.5 0 5.6-1.9 7.8-7 1.4-3.4 1.4-3.4 2-1 .3 1.4.7 3.6.8 5 .5 4.3 2.3 2.8 2.6-2.2.3-4.4.5-4.7 3.8-5.5 4.8-1.1 4.3-2.9-.6-2.5-3.8.2-4 .1-4-2.6 0-5.1 1.9-6.5 8.4-6 4.8.4 5.6.2 5.4-1.1-.2-1.2-1.7-1.7-5.8-1.8-3-.1-6.5.2-7.7.7zm-7.2 6.7c2 5.4-1.8 14.3-6.2 14.3-2.8 0-5.2-6-4.3-10.6.8-4.5 2.8-6.4 6.5-6.4 2.3 0 3.2.6 4 2.7zM342.8 118.3c-4.7.6-6.8 1.4-6.8 2.3 0 .9 1.1 1.4 3 1.4h3v10c0 8.2.3 10 1.5 10s1.5-1.8 1.5-10.4v-10.5l4.5-.7c2.8-.4 4.5-1.1 4.5-2 0-1.6-1.4-1.6-11.2-.1zM280 119.4l-5.5 1.2.4 10.4c.1 5.8.7 10.9 1.1 11.4.5.5 2.8.4 5.4-.3 2.5-.6 5.7-1.1 7.1-1.1 1.7 0 2.5-.5 2.2-1.3-.3-.8-2.3-1.1-6.6-.9l-6.1.3v-3c0-2.6.5-3.2 3.2-3.9 4.7-1.2 5.1-3.7.5-2.9-3.3.5-3.6.4-4.2-2.4-.4-1.7-.5-3.3-.2-3.5.3-.3 3.4-1 7.1-1.6 4.3-.7 6.6-1.6 6.6-2.4 0-1.7-3.3-1.6-11 0z"/><path d="M361.6 118.7c-.3.3-.6 2.6-.6 5 0 3-.4 4.3-1.4 4.3-.7 0-2.8.3-4.5.6-3 .6-3.1.5-3.1-2.6 0-2.1-.4-3-1.2-2.7-1.5.5-1.3 17.6.2 19.1 1.4 1.4 2.3-2 1.7-6.3-.5-3.7-.3-3.9 2.5-4.5 5.4-1.1 5.6-.9 6.5 5.6.6 5 1.2 6.4 2.7 6.6 1.5.3 1.7 0 1.2-1.4-.4-1.1-1-6.8-1.3-12.7-.6-10.1-1.1-12.5-2.7-11zM385.5 119.2c-.3.7-.6 4.9-.7 9.3l-.3 8-4-8.2c-5.6-11.5-6.9-11-7.3 3-.2 9.1 0 10.7 1.3 10.7 1.2 0 1.5-1.4 1.5-7.3v-7.2l3 5.4c4.9 8.8 8.2 11.4 9.2 7.3.8-3-.4-22.2-1.4-22.2-.5 0-1.1.6-1.3 1.2zM394.4 119.5c-5.6 3.9-5.8 14.4-.3 20.1 5.7 5.9 13 3.8 14.5-4.2.5-3 1-3.4 4.8-3.9 6.3-1 9-.4 9.4 2.1.6 4.3-9 8.8-10.4 4.9-.9-2.2-3.4-1.8-3.4.5 0 3.8 6.7 5.3 11.9 2.5 3.3-1.7 5.6-6.5 4.7-10-.7-2.9-3.7-3.9-9.6-3.3-2.5.2-4-.1-4-.8 0-2.1 4-4.7 7.8-5 4.8-.3 4.6-.2 3.2-1.9-2.9-3.5-11-.2-13.7 5.5-1.6 3.5-2.2 3.9-6.2 4.2-2.6.2-4.6.9-4.9 1.6-.3 1 .5 1.3 3.4 1 3.6-.3 3.9-.1 3.6 2.1-.6 6-5.7 6.9-9.6 1.8-3.2-4.2-3.4-9.4-.5-13.1 2.3-2.9 4.6-3.3 7.5-1.1 2.4 1.8 3.4 1.9 3.4.1 0-3.8-7.7-5.9-11.6-3.1zM123.2 119.7l-3.3.4.2 11.5.3 11.6 7.1-.7c3.8-.4 7.2-1.1 7.3-1.6.2-.5 1-.9 1.7-.9s1.7-1.7 2.2-3.8c.8-3.4 1.2-3.7 4.7-4 4.5-.4 5.2.3 6.1 6.4.3 2.4 1 4.6 1.6 4.9 1.9 1.2 2.1-2.6.5-9.7-1.7-7.8-4.6-13.5-7.3-14.5-2.7-1.1-6 3.9-7.8 12.1l-1.7 7.4-5.1.4c-2.9.2-5.3.3-5.5.2-.2-.1-.5-1.8-.9-3.7-.5-3.4-.4-3.6 3.1-4.2 3.4-.7 5-2.4 2.4-2.6-.7-.1-2.2-.2-3.3-.3-1.4-.1-2.1-.9-2.3-2.7-.3-2.2.2-2.7 2.9-3.3 1.7-.3 4.9-.6 7-.6 2.8 0 3.9-.4 3.9-1.5 0-1.5-5.3-1.8-13.8-.8zm22.6 5.8c1.6 3.5 1.6 3.5-2.2 3.5-3.4 0-3.5 0-2.5-3 1.3-3.7 3.2-3.9 4.7-.5zM159.4 120.9c-3.2 2-6.4 8.2-6.4 12.6 0 6.6 5.6 11.2 11.2 9.3 1.8-.6 2.8-1.7 2.8-2.9 0-1.6-.3-1.8-1.9-.9-8.1 4.3-12.1-6.1-5.4-14 1.8-2.2 2.9-2.8 3.6-2.1 1.8 1.8 2.9 1.3 2.5-1.1-.4-3-2.6-3.3-6.4-.9zM269 123.5c0 4.1-.3 4.5-2.7 5.1-1.6.3-3.3.7-4 .9-.7.2-1.3-.9-1.5-2.7-.2-1.7-.8-3.3-1.5-3.5-1.2-.4-2.2 11-1.4 17.4.5 4.9 1.8 4 2.3-1.8.6-5.7 1.1-6.4 5.5-7.2l3.2-.6.3 6.7c.2 5 .7 6.8 1.8 7 2.2.4 1.6-24.3-.6-25.2-1.1-.4-1.4.4-1.4 3.9zM295.2 121c-3.6 2.2-5.4 5.7-4.1 8.1.6 1.2 2.3 1.6 6.3 1.6 7.2 0 9.1 1.4 7.1 5.3-2.1 4-7.9 5.6-9.1 2.5-.6-1.5-3.4-2.1-3.4-.7 0 2.5 3.4 5.2 6.5 5.2 3.7 0 9.4-4.1 9.6-6.8.1-1 .5.2 1 2.4l1 4.1 5.7-1.3c3.1-.8 7-1.4 8.5-1.4 1.9 0 2.7-.4 2.4-1.3-.4-1.4-6.4-1.6-11.4-.3-3.3.7-3.3.7-3.3-2.8 0-3.1.4-3.6 3.2-4.4 4.7-1.2 5.1-3.7.4-2.9-3.3.5-3.6.4-3.6-1.8 0-3 1.2-3.7 6.4-3.9 4.6-.2 6.9-1.2 6.1-2.7-.8-1.2-4.3-1.1-10.5.2l-5 1.1v5.5c0 5.4 0 5.5-1.7 3.4-1.4-1.7-3.1-2.2-7.5-2.4-3.8-.1-5.8-.6-5.8-1.4 0-2 6-4.6 9.1-3.9 2.1.4 2.9.2 2.9-.8 0-3.1-6.1-3.4-10.8-.6zM74.7 120.7c-1.5 1.4-.6 2.3 2.3 2.3h3v7.9c0 8.6.5 11.1 2.5 11.1.9 0 1.1-2.3.7-9.5l-.5-9.5h4.7c3.4 0 4.6-.4 4.6-1.5 0-1.2-1.6-1.5-8.3-1.5-4.6 0-8.7.3-9 .7zM94.7 121.1c-2.7 1.6-5.7 8.7-5.7 13.7 0 3.2.6 4.9 2.5 6.7 2.9 3 4.8 3.1 9 .5 3.7-2.3 6.5-8.1 6.5-13.6 0-6.4-6.9-10.5-12.3-7.3zm8.9 5.5c1.1 4.2-.5 9.1-3.7 11.8-1.7 1.4-3.7 2.6-4.4 2.6-3.4 0-4.6-7.5-2.1-13.5 1.1-2.5 2.1-3.4 4.3-3.7 4-.5 5.2.1 5.9 2.8zM182 124.9c0 4.6-.1 4.9-3.1 5.5-5.6 1.1-6.9.8-6.9-1.7 0-3.6-1.2-6.7-2.5-6.7-.9 0-1.1 2.4-.8 9.7.5 11.1.8 12.6 2.5 12.1.8-.3 1.1-2.1.9-5.1-.2-4.6-.2-4.7 2.6-4.7 1.5 0 3.8-.3 4.9-.6 1.9-.5 2.2 0 2.8 5.5.5 4.6 1.1 6.1 2.3 6.1 1.3 0 1.5-.9.9-5.3-.3-2.8-.6-8.5-.6-12.5 0-5.7-.3-7.2-1.5-7.2-1.1 0-1.5 1.2-1.5 4.9zM367.9 121.9c-.2.6-.2 5.2.1 10.2.3 6.3.9 9.4 1.8 9.7 1 .3 1.2-1.9 1-9.9-.2-6.6-.7-10.4-1.4-10.6-.7-.2-1.4.1-1.5.6zM427 141.4c0 1.9-.4 3.8-1 4.1-1.5.9-1.2 2.5.5 2.5 1.9 0 3.5-3.1 3.5-6.9 0-2.1-.5-3.1-1.5-3.1s-1.5 1-1.5 3.4zM342.8 157.1c-1.6.6-2.8 1.4-2.9 1.7-.4 6.2-1.2 9.9-3.3 16.1-1.4 4.1-2.6 7.8-2.6 8.3 0 1.6 6.6.8 10-1.3 11.4-6.8 16.4-18.3 10-23-3.2-2.4-7.8-3.1-11.2-1.8zm9.6 4.8c1.4 1.5 1.5 2.3.6 4.7-1.8 4.6-5.4 8.7-10 11.3-4 2.2-4.3 2.2-3.6.5.4-1 1.7-5.6 2.9-10.2 2-8.1 2.1-8.2 5.2-8.2 1.8 0 3.9.8 4.9 1.9zM84.3 158.3c-5.9 1.1-7.4 3.7-2.3 3.7h3v10.1c0 7.6.3 10 1.3 9.7.8-.3 1.4-3.8 1.7-10.9l.5-10.4 3.8-.3c2.4-.2 3.7-.8 3.7-1.8 0-1.6-3.7-1.7-11.7-.1zM139.9 158.7c-.2 2 .2 10.2.7 13.8.6 3.6.5 3.8-1 2.6-1-.8-2.9-3.5-4.3-6-5.6-9.9-5.4-9.7-6.9-7.6-2 2.8-2 20.5.1 20.5 1.1 0 1.5-1.7 1.7-7.3l.3-7.2 2.7 4.6c1.5 2.5 3.9 5.6 5.4 7 2.5 2.4 2.6 2.4 4 .4 1.2-1.6 1.4-3.9.8-11-.7-9.5-.9-10.5-2.5-10.5-.5 0-.9.3-1 .7zM198.5 158.7c-7.2 1.4-6.6.3-6.4 11.4.3 11.2.8 12.4 6.5 13.5 4.6.9 8.3-1.1 10.1-5.4 1.7-4.1.9-7-2.3-8.4-3-1.4-3-1.7.1-4.7 2.7-2.5 3.2-4.9 1.3-5.5-2.6-.8-7.4-1.3-9.3-.9zm6 3.3c.3.5-1.3 2.3-3.5 3.9-2.3 1.6-4 3.3-3.9 3.8 0 .4 2 1.2 4.3 1.8 3.3.8 4.2 1.5 4.4 3.6.7 6.3-8.9 8-10.2 1.7-1.1-5.4-.7-14.6.7-15.1 2.2-.9 7.6-.7 8.2.3zM219 159c-1.4.4-4 .8-5.9.9-3.3.1-3.3.2-2.6 3.7.3 2 .8 7.2 1 11.7.5 9.2-.6 8.5 10.3 7.1 3.7-.5 5.2-1.1 5.2-2.2 0-1.2-1.1-1.4-6.1-.9l-6 .5.3-4.1c.2-3.4.7-4.2 2.6-4.7 3.2-.7 2.4-2.5-1-2.4-2.4.2-2.8-.2-2.8-2.6s.5-2.9 4.6-3.9c2.5-.6 4.8-.9 5.2-.7 1.3.8 3.5-1.1 2.8-2.3-.8-1.2-3.9-1.3-7.6-.1z"/><path d="M233.2 159.6c-7.1 5-7.3 20.6-.3 22.9 2.4.7 9-2.1 9.8-4.2 1-2.4-.5-2.6-4-.4-1.9 1.2-4.2 1.9-5 1.5-3.2-1.2-3.9-9.2-1.3-14.3 1.7-3.3 3.5-4.2 6.5-3.4 2.3.6 2.8-.6.9-2.5-1.6-1.6-3.9-1.5-6.6.4zM379 159.3c-4.6 1.6-4.8 4.3-.2 3.9 1.7-.2 3.2-.1 3.2.2 0 .3-.9 4.4-2 9.1-2.4 10.5-2.5 11.7-.3 11.3 1.7-.3 2.8-3.7 5.3-16.1 1.1-5.6 1.2-5.7 4.5-5.7 4.3 0 6.5-.9 6.5-2.6 0-1.8-11.9-1.8-17-.1zM104 164v5h-4.5c-4.4 0-4.5-.1-4.5-3.1 0-2-.4-2.9-1.2-2.7-.9.3-1.4 3.5-1.6 10.1-.2 8.2 0 9.7 1.3 9.7 1.2 0 1.5-1.2 1.5-5.5V172h9v4.9c0 3 .5 5.3 1.4 6 .8.7 1.6.8 1.8.4.1-.4.2-6.1 0-12.6-.3-9.4-.6-11.7-1.8-11.7-1 0-1.4 1.3-1.4 5zM113.4 160c-1.2.5-2.5 1.3-2.8 1.8-.3.6-.3 5.8.1 11.7l.6 10.7 2.6-.7c1.4-.4 4.6-.8 7-.9 2.5-.1 4.6-.7 4.8-1.3.6-1.7-4-2.7-8.2-1.9l-3.5.7v-4.6c0-3.8.3-4.5 1.9-4.5 1.1 0 2.6-.3 3.5-.6 2.9-1.1 1.6-2.4-2.4-2.4-3.6 0-4-.3-4-2.4 0-2.7 1.6-3.6 6.5-3.6 3.9 0 6.5-.8 6.5-2.1 0-1.1-9.8-1.1-12.6.1zM167.7 160.8c-4.7 1.5-5.9 3.7-2.1 3.7 1.7 0 1.9.9 2.2 9.3.2 6.8.6 9.2 1.5 8.9.8-.3 1.2-3.4 1.2-10 0-10.4.2-10.6 6.3-10.7 1.3 0 2.2-.6 2.2-1.5 0-2-4.9-1.8-11.3.3zM247.6 162.1c-4.4 5.2-3 16 2.5 19 5.4 2.8 12.9-6.1 11.4-13.7-1.5-8.1-9.1-11-13.9-5.3zm8.3 1.2c3.5 2.9 3.1 10.6-.8 14.1-3.4 3.1-7.2-.7-7.3-7.5-.1-6 4.3-9.6 8.1-6.6zM276.8 163.2l-3.8 4.2-4.1-4c-3.3-3.2-4.1-3.6-5-2.4-.9 1.4-.4 17.9.7 18.9 1.2 1.2 1.9-1.8 1.7-7.5 0-3.5.2-6.4.6-6.4.5 0 1.6.9 2.6 2 2.7 3 5.6 2.5 9.2-1.7l3.2-3.8.1 10.3c0 7.8.3 10.3 1.3 10 1.7-.6 2.2-20.4.6-22.4-1.8-2.2-2.9-1.7-7.1 2.8zM291.5 159.9l-4 .6v11c0 10.4.1 11 2 10.7 1.1-.2 4.5-.5 7.5-.7 3.8-.2 5.5-.7 5.5-1.7 0-.9-1.6-1.3-6.2-1.2l-6.3.1v-3.2c0-3.5 1.3-4.5 5.7-4.5 1.5 0 2.3-.5 2-1.3-.2-.6-1.9-1.2-3.8-1.2-2.9-.1-3.4-.5-3.7-2.7-.3-2.2.1-2.6 3.5-3.1 2.1-.4 5.3-.7 7.1-.7 2.2 0 3.2-.5 3.2-1.5 0-1.6-4.5-1.8-12.5-.6zM311 160.7c-3.6 2.5-4.9 4.5-5 7.5 0 2.7.1 2.8 6 2.8 6.6 0 7.7 1 6.6 5.4-1.1 4.3-11.6 6.2-11.6 2.1 0-.8-.7-1.5-1.5-1.5-2.1 0-1.9 2.6.5 5 2.7 2.7 7.9 2.6 12.1-.3 2.8-1.9 3.5-3 3.7-6.4.4-5.5-1.5-7.3-7.9-7.3-5.6 0-6.1-.9-2.2-4 2.1-1.6 3.5-2 6-1.5 3.4.6 4.2-.2 2.1-2.3-1.7-1.7-6-1.5-8.8.5z"/><path d="M363.1 162.1c-3.6 3.6-11.6 19.2-10.7 20.8 1.3 2 2.3 1.1 4.5-3.8l2.1-4.9 5.9-.4 6-.3-.6 5.9c-.5 5.2-.4 5.8 1.2 5.5 2-.4 2.2-1.3 3.2-11 .6-7.5.1-11-2.3-13.3-2.4-2.5-5.9-1.9-9.3 1.5zm8 4.2c.9 3.3-.2 4-5.7 3.5l-3.7-.3 2.8-3.3c3.2-3.9 5.6-3.8 6.6.1zM398 160.6c-1.4.9-3.7 3.2-5.1 5.2-3.5 4.9-7.2 14.9-5.8 15.8 1.3.8 2 .1 4.4-4.9 1.9-4 2.3-4.2 6.8-4.5l4.7-.3v5.6c0 4.8.3 5.6 1.8 5.3 1.5-.3 1.7-1.6 1.7-10.6 0-9.1-.2-10.5-1.9-11.8-2.5-1.8-3.5-1.7-6.6.2zm4.8 5.2c.3 1.9-.1 2.2-3.4 2.2h-3.7l2.3-2.5c2.7-2.9 4.4-2.8 4.8.3zM157.7 161.7c-.7 1.2.7 21 1.5 21.8 1.7 1.8 2.5-1.1 2.1-8.2-.5-10.1-1.2-14.3-2.3-14.3-.5 0-1.1.3-1.3.7zM408 183c-.7 2.2-1 4.3-.6 4.8 1.2 1.1 4.6-3.7 4.6-6.4 0-3.8-2.6-2.8-4 1.6zM82.6 199.3c-1.8 2.7-4.6 13.9-4.6 18.5s2.4 3.7 2.8-1c.3-3.3.5-3.6 4.5-4.1 2.3-.3 4.5-.2 5 .2.4.4 1.1 2.7 1.5 5.1.4 2.4 1.3 4.5 2 4.8 2.1.7 1.4-6.1-1.4-14-4.3-11.8-6.8-14.2-9.8-9.5zm6.4 9.4c0 .8-1.3 1.3-3.5 1.3-3.4 0-3.5-.1-2.9-2.8.4-1.5 1.1-3.6 1.7-4.6.9-1.8 1.1-1.7 2.8 1.5 1 1.9 1.8 4 1.9 4.6zM172.7 199.5c-6 6.1-7.6 15.7-3.2 20 3 3.1 6.4 3.2 9.9.4 3.5-2.8 2-4.8-1.7-2.4-7.5 4.9-10.6-6.7-4-14.5 2.4-2.9 2.6-2.9 3.8-1.3 1.3 1.7 1.4 1.7 2 0 .8-1.9-1-4.7-3-4.7-.7 0-2.4 1.1-3.8 2.5zM107.8 206.7c.5 7.9.3 8.7-1 7.5-.9-.7-2.9-3.9-4.4-7.2-4.3-8.9-5.4-8-5.4 4.5 0 11.6 1.7 14.6 2.2 3.8l.3-6.7 3.8 6.2c6.6 10.8 8.9 7.3 7.1-10.7-.4-3.9-1.1-6.1-1.9-6.1-1 0-1.1 2.1-.7 8.7zM187 199.4c-1.1 1.4-3.9 14.7-4 18.9 0 2.9 2.2 1.4 3.5-2.3 1.1-3.2 3.2-4.8 6.7-4.9 1.6-.1 2 .6 3.2 6.1.4 1.6 1.3 2.8 2.1 2.8 1.9 0 1.9.1-.6-9.2-3-11.1-7.3-15.6-10.9-11.4zm5.5 4.6c1.5 2.9 1.5 3.1-1 4-3.5 1.3-4.5 1.3-4.1-.3.3-.6.7-2.4 1-4 .8-3.5 2.2-3.4 4.1.3zM213.6 203.2c-.4 2.9-.7 7.3-.9 9.8l-.2 4.5-1.9-2.9c-1.1-1.6-2.8-5.2-3.7-8-3.2-9.5-5.9-6.1-5.9 7.6 0 4.4.4 5.8 1.4 5.8 1.1 0 1.6-1.5 1.8-5.3l.3-5.2 1.3 3c1.9 4.4 6.1 9.5 7.7 9.5 1.8 0 2.3-2.1 2.9-14.3.3-7.7.2-9.7-.9-9.7-.9 0-1.6 1.8-1.9 5.2zM279.6 199.2c-.2.7-1.6 6.2-3 12.2-2 8.3-2.3 11.2-1.4 11.7 1.8 1.2 2.5.4 3.7-4.8 3.2-13 3.1-12.6 5-10.9 2.3 2.1 3.9 2 8-.5 1.8-1.1 3.4-1.9 3.6-1.7.1.2-.4 3.6-1.2 7.6-1.5 7.1-1.3 10.2.6 10.2.5 0 1.7-3.5 2.6-7.8 1-4.2 2.4-8.9 3.1-10.4 1.8-3.5 1.8-6.8-.1-6.8-.8 0-3.9 1.6-6.9 3.5-3 1.9-5.9 3.5-6.4 3.5-.6 0-1.7-1.6-2.6-3.5-1.7-3.5-4.3-4.7-5-2.3zM326.5 198.7c-6.3.7-8.8 4.3-2.9 4.3 1.3 0 2.4.3 2.4.6s-1.1 4.9-2.5 10.2c-1.8 6.6-2.3 9.8-1.5 10.6 1.7 1.7 2.6-.3 5.5-11.7l2.8-10.7h4.4c3.6 0 4.3-.3 4.3-2 0-2.1-2.1-2.3-12.5-1.3z"/><path d="M349.1 202.2c-1.7 5.8-2.8 6.8-6.7 6.8-2.9 0-3.4-.3-3.4-2.4 0-2.8-1.5-4.2-2.6-2.5-1.6 2.7-5.3 18.4-4.5 19.2 1.6 1.6 2.9-.1 4.2-5.3 1-4 1.7-5 3.3-5 1.2 0 3.1-.3 4.3-.6 2-.6 2.1-.4 1.3 3.1-.9 3.9.2 8.5 2 8.5.5 0 1-1.5 1.1-3.3 0-1.7 1.3-7.3 2.8-12.2 1.6-5 2.7-9.3 2.4-9.8-1.1-1.9-3.1-.3-4.2 3.5zM429 201.7c0 2.1-.3 6.2-.6 9-.6 4.3-.4 5.3.8 5.3 1.6 0 2.8-5.7 2.8-13.6 0-3.2-.4-4.4-1.5-4.4s-1.5 1.1-1.5 3.7zM146.5 199.6c-6.6 1.6-9.4 4.4-4.4 4.4 1.8 0 2 .6 1.7 7.2l-.3 7.3-3.3-.2c-2.6-.1-3.2.3-3 1.5.3 1.4 1.7 1.7 8.5 1.7 5.8.1 8.4-.3 8.7-1.2.4-.9-.8-1.5-3.5-1.9l-4-.7.3-7.6.3-7.6 3.8-.5c2.1-.3 3.9-1 4-1.5.2-1.1-5.5-1.6-8.8-.9zM229.2 200.2c-1.2 1.2-1.7 15.4-.6 19.5 1.4 5.3 8.9 2.8 14-4.9l3.2-4.7.5 4.1c.7 5.1 2.7 7.1 6.8 7.1 6.1 0 11.4-9.2 9.2-16-1.1-3.4-7.4-6.9-9.8-5.5-.9.5-2.5 2.2-3.6 3.8-1.9 2.9-1.9 2.9-2.5.6-.4-1.2-1.9-2.9-3.5-3.7-3.4-1.8-12-2-13.7-.3zm12.5 3.3c1.9 1.3 2.1 2 1.2 4.3-2.3 6.2-9.4 13.4-11.3 11.5-.3-.3-.6-4.4-.6-9V202h4.3c2.3 0 5.2.7 6.4 1.5zm15.7.1c2 .8 3.1 6.6 1.7 9.2-4.6 8.7-12 5.6-9.2-3.8 1.1-3.6 2-4.5 5.8-5.9.1-.1.8.2 1.7.5zM308 202.2c-3.2 3.3-8.3 12.8-9.6 18-1.1 4.9 2.2 3.3 4.5-2.2 2.1-5 2.2-5 6.7-5h4.5l-.3 5.2c-.2 4.1 0 5.3 1.3 5.6 1.2.2 1.8-1.3 2.7-7.5 1.6-10.2 1.5-12.4-.4-15.1-2.2-3.1-5.6-2.7-9.4 1zm6.8 4.1c.3 2.5 0 2.7-3.2 2.7-4.2 0-4.4-.5-1.4-3.7 2.7-2.9 4.2-2.5 4.6 1zM364.8 200c-2.7 1.6-5.1 9.4-4.5 14.5.9 8.9 6.5 11.1 12.3 4.9 1.9-1.9 3.5-4.5 3.6-5.7 0-1.2.4 0 .7 2.7.9 7.7 2.9 7 3.3-1.1l.3-6.8 4.3 6.7c2.3 3.8 4.8 6.8 5.6 6.8 1.4 0 2.6-7.9 2.6-17.6 0-4.1-.4-5.4-1.5-5.4-1.2 0-1.5 1.6-1.5 8.6 0 10.1-.6 10.1-6 0-4-7.5-6-8.4-6.1-2.9 0 3.6-.1 3.6-1 1.3-2.4-5.9-7.6-8.5-12.1-6zm8.6 6.2c1.3 3.7-1.6 11-5 12.9-2.3 1.2-2.8 1.1-4.1-.6-1.8-2.4-1.3-11.6.7-14 2.1-2.6 7.3-1.6 8.4 1.7zM112.8 200.7c-.2.5-.1 5.3.2 10.8l.5 10 3.2.3c6.3.6 13.6-9.3 11.3-15.3-1.6-4.1-13.9-8.7-15.2-5.8zm10.4 5c2.8 2.5 2.2 6.5-1.3 10.1-4.8 4.9-5.9 4.3-5.9-3.2 0-3.5-.3-7.2-.7-8.2-.5-1.5-.2-1.6 2.7-1 1.9.3 4.2 1.4 5.2 2.3zM417.5 200.7c-1.1.2-3 .6-4.2.9-1.3.2-2.3 1.1-2.3 2 0 1 .8 1.4 2.3 1.2 2.2-.3 2.2-.1 1.8 8.4-.3 7.6-.1 8.8 1.3 8.8 1.1 0 1.6-.9 1.6-3.4 0-1.8.3-6.1.6-9.5.7-6.1.7-6.1 3.9-6.1 2 0 3.5-.6 3.9-1.5.4-1.2-.3-1.5-3.2-1.4-2 .1-4.6.3-5.7.6zM405.8 203.2c-.2 1.3-.2 6.5 0 11.5.3 7.3.7 9.3 1.8 9.3 1.2 0 1.5-2.1 1.3-11.5-.1-8.4-.5-11.5-1.4-11.5-.7 0-1.4 1-1.7 2.2zM427.3 220.6c-.9 2.3 1.1 3.8 2.6 2 1.3-1.6.7-3.6-1-3.6-.5 0-1.2.7-1.6 1.6zM193.9 272.9c-4.7 4.8-4 12 1.9 18.3 6.7 7.3 19-1.9 16.2-12.1-1.6-6.1-5.1-9.1-10.5-9.1-3.8 0-5.2.5-7.6 2.9zm12.9 2.7c3.2 3.6 3 9-.5 12.6-3.7 3.9-6.7 3.6-9.8-.9-3.5-5.2-3.3-9.4.6-12.7 3.6-3.1 6.2-2.8 9.7 1zM335 272.9c-1.5 1-4.4 1.7-27.3 6.6-14 3.1-17 4.2-16.1 6.4.3.9.7 33.3.9 72l.3 70.4 9.9 4c10.2 4.1 31.1 10 35.1 9.9 4.9 0 4.8 1.1 5-51.9.1-27.4.7-54.1 1.3-59.4 1.1-9.7.9-56.2-.2-57.4-1.2-1.1-7.4-1.6-8.9-.6zm7.9 28.1c0 9.6-.4 22.2-1 28-.6 5.8-1.2 25.8-1.2 44.5 0 31.2-.1 32.7-.9 18.5-.9-15.7-.4-77.8.9-103.5.9-18 1.9-12 2.2 12.5zm-5.4-8.3c-.5 9.3-.9 40.4-1 69.3-.1 28.9-.3 58-.4 64.7l-.1 12.1-8.2-1.8c-7.7-1.7-20.5-5.9-28.7-9.3l-3.4-1.4-.2-70.6-.3-70.6 4.7-1c2.5-.5 8-1.7 12.1-2.6 4.1-.8 11.1-2.4 15.5-3.4s8.6-1.9 9.4-2c1.2-.1 1.3 2.6.6 16.6zm2.7 138.1c.2 4.5 0 8.2-.4 8.2-.5 0-.7-5.5-.6-12.3.2-12.4.5-10.9 1 4.1z"/><path d="M324.2 297.2c-.7.7-2.5 1.3-4 1.3-3 .1-4 2.8-2.2 5.5.9 1.3 1.2 1.3 2.3-.1 1.5-1.9 4.3-3.3 8-3.8 1-.1-1.1-4.1-2.1-4.1-.5 0-1.4.6-2 1.2zM308.3 300.8c-.3 1.3-1.1 1.8-2.4 1.5-1.7-.5-1.8-.2-.8 2.6 1.3 3.7 2.7 4.8 3.5 2.8.3-.9 1.3-1.3 2.5-1 1.3.4 1.9 0 1.9-1.1 0-.9-.4-1.6-1-1.6-.5 0-1-.9-1-1.9 0-2.8-2-3.7-2.7-1.3zM314.1 316c-.8.4-2 .6-2.8.3-1.7-.7-4.3 1.5-4.3 3.5 0 1.3.3 1.3 1.9-.2 1-.9 2.5-1.4 3.3-1.1.8.3 2.1-.1 2.8-1 1.5-1.8 1-2.7-.9-1.5zM323.1 326.4c-.7.8-1.9 1.2-2.7.9-1.8-.7-1.8 1.1.1 2.7.8.7 2 .8 2.7.4.7-.5 2.1-.7 3.1-.6 1.5.3 3.6-2.3 2.6-3.2-1.5-1.3-4.8-1.4-5.8-.2zM302.2 330.5c-1.2 2.6-.4 3.3 1.5 1.4.7-.7 1.2-.3 1.7 1.5.3 1.4 1.3 2.6 2.1 2.6 1.9 0 1.8-.7-.4-4.4-2.2-3.9-3.5-4.2-4.9-1.1zM316.7 353.9c-.4 1.8-.7 4.4-.7 5.8 0 2.1.3 2.3 2.3 1.7 2.8-.8 2.6-.6 3.6-4.2.7-2.3.6-3.2-.5-3.6-.9-.3-1.8.2-2.2 1.2-.5 1.3-.8 1-1.2-1.3l-.6-3-.7 3.4zM325.6 356.6c-.3.9-.6 2.5-.6 3.7v2.1l2-2.2c1.1-1.2 2-2.8 2-3.7 0-2-2.6-2-3.4.1zM303.2 358c-.7 1.1-1.9 2-2.7 2-.8 0-1.5.4-1.5 1 0 1.5 3.6 1.2 5-.5 1.1-1.3 1.4-1.3 2.6.2 1.2 1.7 1.3 1.7 1.9.1.4-1 .1-2.4-.8-3.3-2.1-2-3-1.9-4.5.5zM313.6 382.8c-.3 4.1-.6 9.5-.6 11.9 0 4.1.2 4.5 3.8 6 2 .8 6 1.6 8.7 1.7l5 .1.3-11.9c.3-13.3.2-13.6-6.3-13.6-2.2 0-5.4-.4-7.1-.9l-3.1-.9-.7 7.6zm10.2-3.8h4.7l-.3 11c-.4 12.3 0 12-8.2 9.3l-5.2-1.7.6-4.4c.3-2.5.6-6.9.6-9.9 0-4.6.3-5.4 1.6-4.9.9.3 3.7.6 6.2.6zM302.6 379.1c-.3 1.8-.6 4.7-.6 6.5 0 2.8.4 3.4 2 3.4 2.4 0 3.7-2.7 2.1-4.3-.6-.6-1.1-2.6-1.1-4.3 0-4.4-1.6-5.2-2.4-1.3zM304.6 411.9c-.3.5.1 2.2.9 3.7l1.5 2.9v-3.2c0-3.2-1.4-5.1-2.4-3.4zM310.7 412.4c-.9.8-1.7 2.6-1.7 4.3 0 2.7.3 3 2.5 2.5 2.1-.4 2.5-1 2.5-3.8 0-3.9-.9-4.7-3.3-3zM323 418.4c0 2.9.3 3.3 2.6 3.3 2.3 0 2.5-.3 1.9-2.6-.6-2.4-2.1-4.1-3.7-4.1-.5 0-.8 1.5-.8 3.4zM319.4 428.3c-.3.9-.4 2.4-.1 3.4.3 1.2.5.8.6-1 .1-3.1-.3-3 7.8-1.3 3.5.7 6.1 1 5.8.6-.2-.4-2.4-1-4.7-1.4-2.4-.4-5.3-.9-6.5-1.3-1.5-.3-2.5 0-2.9 1zM204.5 303.3c-6.2 2.8-7.2 10.2-2.1 15.3 5.7 5.7 13.2 4.2 15.6-3.1 1.4-4.2.6-8.7-1.9-10.9-2.5-2.3-8-2.9-11.6-1.3zm9.5 4.4c3.4 4.3.5 11.3-4.7 11.3-2.9 0-7.3-4.2-7.3-7 0-2.9 4.4-7 7.4-7 1.5 0 3.3 1.1 4.6 2.7zM234.9 323.9c-8.5 3.1-11.9 5.4-16 10.9-5.3 7.3-5.9 15.2-1.7 27.1 3.8 11.2 9 17.9 16.6 21.3 2.3 1 4.2 2.2 4.2 2.6 0 .4-1.7 6.1-3.8 12.7-2.1 6.6-5.4 18.3-7.3 25.9-3 12.3-3.8 14.4-6.8 17.4-3.4 3.5-3.5 5.5 0 3.4 1.1-.7 2.5-1 3-.6 1.3.8 7.2-5.4 6.3-6.7-.3-.5-1-.7-1.5-.4-.5.4-.9.2-.9-.3 0-2 7.2-29 9.8-36.7l2.6-8 .7 6c.4 3.3 1.1 12.5 1.4 20.5.9 17.7 0 23.8-9.1 60.4-3.9 15.8-6.1 26.3-5.5 26.9.5.5 1.1.5 1.4 0 1.1-1.7 13.6-52 14.8-59.5.7-4.3 1.4-7.6 1.6-7.5.1.2 4.8 14.4 10.3 31.6 5.6 17.2 10.6 32.4 11.2 33.7 1.1 2.4 4.4 3.5 3.5 1.1-1.2-3.1-19.8-61.2-22-68.7-1.9-6.6-2.7-12.4-3.5-26-.6-9.6-1-17.6-.8-17.7.1-.1 4.2 5.9 9.1 13.3 4.9 7.4 9.4 13.3 10 13.1 2.1-.7 2.9-11.7 1.7-24-1.1-10.8-1.1-12.2.4-13.8 1-1.1 1.4-2.7 1.1-4-.3-1.2.1-3.5.8-5 2.9-5.4 4-15.9 2.7-24.9-2-13.9-6.1-20.3-15.3-23.7-8.9-3.4-10.8-3.4-19-.4zm20.3 4.2c4.4 2.3 8.1 7.5 9.9 13.9 1.5 5.9 1.6 20.4.1 25.6-2.5 8.7-8.8 14.8-16.6 15.9-5.5.9-14.8-2.4-19.4-6.7-5.9-5.7-12.2-20.6-12.2-28.8 0-2 1.2-5.9 2.6-8.8 2.6-5.3 9.4-11.7 11.6-10.9.7.2 2.2-.1 3.3-.6 2.8-1.5 10.4-2.6 14-2 1.7.3 4.7 1.4 6.7 2.4zm5.1 60.1c1.4 11.8 1.9 21.7 1.3 23.3-.5 1.3-2.2-.6-7.1-7.6-3.6-5.2-7.4-11.1-8.5-13.2l-2-3.7h2.2c1.3-.1 4.6-.9 7.3-1.9 2.8-1 5.3-1.9 5.6-2 .3 0 .9 2.3 1.2 5.1zM27.5 561.7c-5.6.7-7.6 1.4-7 2.3.3.6 2 1 3.6 1h3.1l-.3 9.2c-.3 7.6-.1 9.3 1.1 9.3 1.2 0 1.6-2 1.8-9.8l.3-9.7h4.4c3.3 0 4.5-.4 4.5-1.5 0-1.5-3.8-1.8-11.5-.8zM181.2 562c-4.6 1.1-5.6 2.3-4.3 4.8.6 1.1 1.1 5.7 1.1 10.1 0 9.3.9 10.3 7.6 8.9 5.2-1.1 8.4-4 8.4-7.8 0-4.1-1-6-3.6-7-2.3-.9-2.3-1-.7-3.8 3.1-5.5.2-7.3-8.5-5.2zm5.8 3.9c-.5 1.1-2 2.7-3.1 3.5-2.7 1.8-1.7 3.6 2 3.6 6.7 0 6.6 7.3-.2 9.6-4.5 1.6-4.4 1.8-5-9.3-.4-8.8-.3-8.9 5.1-9.2 2-.1 2.1.2 1.2 1.8zM272.7 562.6c-2.1 1.1-2.7 2-2.1 3.2.4.9.9 6.1 1.2 11.4.5 11.1.8 11.4 7.7 7.3 7.8-4.5 10.1-15 4.6-20.6-3.3-3.3-7-3.7-11.4-1.3zm11.1 7.6c.4 4.4-1.9 9.1-5.4 11.4-1.3.9-2.6 1.5-2.8 1.3-.2-.2-.6-4.3-.9-9.2-.4-7.4-.2-8.9 1.2-9.6 1.1-.7 2.5-.4 4.6.8 2.3 1.3 3.1 2.5 3.3 5.3z"/><path d="M309.8 562.7c-2.6 3-3.9 6.2-5.2 12.6l-1.3 6.2-6.2.5-6.2.5.3-3.5c.3-2.9.8-3.6 3.6-4.4 4-1.1 4.2-2.6.2-2.6-2.6 0-3-.3-3-2.9 0-3.1 1.8-4.1 7.8-4.1 2.3 0 3.2-.4 2.9-1.3-.5-1.5-13.7-1.3-13.7.2 0 .3-.3 5.5-.6 11.5l-.6 10.9 4.9-.8c2.6-.5 5.9-.9 7.3-1 1.4-.1 3.2-.3 4.2-.3 1-.1 1.9-1.6 2.5-4 .8-3.6 1-3.7 6-4l5.2-.3.6 4.6c.5 3 1.2 4.5 2.2 4.5 3.1 0-1.1-17.5-5.3-22.1-2.1-2.4-3.7-2.4-5.6-.2zm4.7 4.3c2.4 4.6 2 6-1.8 6-1.9 0-3.6-.3-4-.6-.9-.9 2.6-8.4 3.9-8.4.2 0 1 1.3 1.9 3zM348.4 562.8c1.3 4 1.1 13.9-.3 16.6-1.9 3.4-5.9 4.6-7.7 2.1-1.7-2.2-2.8-11.4-1.9-15.4.5-2.4.3-3.1-.9-3.1-1.3 0-1.6 1.5-1.6 8.9s.3 9.2 2.1 11.5c4.5 5.8 13.1 1.3 14.3-7.5.9-6.6-.5-14.3-2.8-14.7-1.4-.3-1.7.1-1.2 1.6zM412.3 562.3c-1.8.7-3.6 1.6-4.1 2.2-.6.6-.8 5.5-.5 11.2.4 7.8.9 10.3 1.9 10.3 1 0 1.4-1.4 1.4-4.5 0-2.5.3-4.5.7-4.5 1.8 0 9.2 5.2 10.8 7.6 1.2 1.9 2 2.3 2.8 1.5.8-.8 1.6-.6 2.9.6 1.6 1.4 2.5 1.5 7.4.4 5.7-1.3 7.3-4 1.8-3.2-1.6.2-4 .5-5.4.5l-2.5.1-.3-10.8c-.3-10.2-1.2-13.4-2.6-8.5-.3 1.3-.6 6-.6 10.6v8.3l-3.1-3.5c-1.6-1.9-4-3.8-5.1-4.2-2.1-.6-2.1-.7.5-2.1 3.3-1.7 6-6.7 5.2-9.4-.6-1.9-4.3-4-6.8-3.8-.7 0-2.6.6-4.4 1.2zm8.3 2.8c.9 1.6-2.8 6.2-6 7.4-2.1.7-2.9.6-3.6-.5-1.7-2.7-1.1-6 1.3-7 3.1-1.2 7.5-1.2 8.3.1zM56.6 563.6l-4.9 1.5.7 6.1c.3 3.4.6 8.1.6 10.4 0 4.3.1 4.4 3.3 4.4 4.6 0 12.7-2.3 12.4-3.5-.2-1.2-2.5-1.2-8.4-.1l-4.3.8v-3.5c0-3.6 1.2-4.7 5.1-4.7 3.5 0 1.9-1.9-1.8-2.2-3.3-.3-3.8-.7-4.1-3-.3-2.4.1-2.8 3.5-3.7 2.1-.5 5.1-1.1 6.7-1.3 1.6-.2 3.1-.9 3.4-1.6.5-1.7-6-1.5-12.2.4zM89.3 563.9c-3.8 2.4-5.6 5.5-4.8 8.2.6 1.8 1.4 2 6.8 1.7l6.2-.3-.2 3.3c-.1 3.6-2.7 7.2-5.2 7.2-.8 0-2.7-1.2-4.2-2.6-1.6-1.5-3.2-2.3-3.9-1.9-2 1.2 4.9 7.5 8.2 7.5 6.4 0 11.5-11.1 7.1-15.5-1.3-1.4-2.8-1.6-7.2-1.1l-5.6.6 3.3-3c2.1-2 4.3-3 6.3-3s2.9-.4 2.7-1.3c-.7-2-6.1-1.9-9.5.2zM106.6 565.4c-.9 1.8-2.3 6.2-3.1 9.7-.9 3.5-1.8 7-2.1 7.7-.2.8.3 1.2 1.3 1 .9-.2 2-1.7 2.5-3.5.7-2.8 1.2-3.2 5.9-3.8 5.9-.8 6.9-.1 6.9 5.7 0 2.9.4 3.8 1.6 3.8 1.4 0 1.6-.9 1.1-5.8-.5-6.5-2.6-11.2-6.5-15.5-3.4-3.6-5.6-3.4-7.6.7zm7.7 4.5c1.8 3.1 1.8 3.1-.5 3.1-1.3 0-3.3.3-4.5.6-2.7.7-2.9-.3-.8-5.3 1.7-4 2.7-3.7 5.8 1.6zM122.6 562.8c-.9 1.5.3 22.7 1.3 23 1.7.6 2.4-4.5 1.7-11.1l-.7-6.2 3.3 3.2c4.9 4.7 7.4 4.4 10.1-1.5l2.2-4.7.5 10c.4 7.6.8 10 1.9 10 1.1 0 1.3-2.1 1.2-10.3-.1-5.7-.5-11-.8-11.8-1.1-2.9-4.7-1-7.1 3.6-1.2 2.5-2.6 4.6-3.1 4.8-.5.2-2.5-2-4.6-4.8-3.6-4.9-4.9-5.8-5.9-4.2zM149.3 563.2l-3.2 1.1.6 10.6c.3 5.8.8 10.9 1.2 11.2 1.1 1.2 14.4-.5 14.9-1.9.3-.9-1.4-1.2-6.2-1.2H150v-4.4c0-4.3.1-4.5 3.3-4.8 3.8-.4 3.4-2.3-.5-2.3-2 0-2.8-.6-3.1-2.3-.6-3 2.2-4.5 7.6-4 4 .3 4.7 0 4.7-2.2 0-1.3-8.5-1.1-12.7.2zM199.6 563.9c-2.3 2.5-4.6 10.4-4.6 15.8 0 5.5 1.6 5.6 2.7 0l.9-4.2 5.1-.3 5.1-.3.6 4.6c1 6 3.2 5.5 2.8-.6-.4-6.4-2-10.5-5.4-13.9-3.5-3.5-4.8-3.7-7.2-1.1zm7.4 6.8c0 .9-1.3 1.3-4 1.3-3.9 0-3.9-.1-2.9-2.6.5-1.5 1.2-3.1 1.5-3.6.8-1.2 5.4 3.1 5.4 4.9zM241.3 564c-7.2 4.3-8.3 14-2.2 19.4 2.7 2.4 3.8 2.7 7.3 2.3 2.2-.3 4.6-1.4 5.3-2.3 2-2.7 0-3.9-3.1-1.9-3.6 2.4-7.3 1.3-9.3-2.9-1.9-4.1-1.2-7.4 2.3-10.9 2.8-2.9 5.3-3.4 7.1-1.6.8.8 1.3.7 1.8-.2.9-1.4-2-3.9-4.4-3.9-.9 0-3 .9-4.8 2zM366.5 563c-.4.6-.3 4.4 0 8.5.4 4.4.3 7.5-.2 7.5-.9 0-4-4.9-7.3-11.4-.8-1.6-2.1-3.1-2.7-3.4-1.2-.3-1.5 2-1.7 18-.1 1.7.4 3.3 1.1 3.5.9.3 1.3-1.7 1.5-6.9l.3-7.3 3.5 5.9c3.6 6 6.3 8.6 7.6 7.3 1-1 1.4-13 .7-18.5-.5-4.1-1.5-5.2-2.8-3.2zM371.9 564c-1.7 1.4-2.1 2.2-1.2 2.8.8.5 1.3 4.1 1.5 9.7l.3 9 2.9.3c4.7.6 8.7-1.7 10.7-6.2 2.7-6 2.5-12.1-.6-15.1-3.1-3.2-10.1-3.5-13.6-.5zm11.3 2.7c4.7 4.2-.2 16.3-6.6 16.3-1.3 0-1.6-1.5-1.6-9v-9h3.2c1.7 0 4 .7 5 1.7zM393.6 563.4l-4 1.2.3 10.5c.2 5.8.7 10.7 1.3 11 .6.4 2.5.3 4.2-.2 1.7-.5 4.6-.9 6.3-.9 2.4 0 3.3-.5 3.3-1.6 0-1.5-.8-1.6-6-1.1l-6 .7v-3.9c0-3.6.2-3.9 3.5-4.5 4.1-.8 3.7-2.6-.6-2.6-2.4 0-2.9-.4-2.9-2.5 0-3 3.9-5 8.1-4.1 3.2.6 4.3-.2 2.8-2.1-1.4-1.6-5-1.5-10.3.1zM442.8 562.7c-.2.5-.1 5.5.2 11.3.4 8 .8 10.5 1.9 10.5 1.1 0 1.3-2 1.2-9.8-.1-5.4-.5-10.5-.8-11.3-.6-1.5-2-1.9-2.5-.7zM451.8 562.7l-2.8.4v10.4c0 5.7.2 11 .5 11.7.5 1.2 1.8 1.2 7.3.4 3.7-.6 7.3-1.5 7.9-1.9.8-.5 2.4.1 4.2 1.4 5.8 4.2 12.4-1.2 11.9-9.6l-.3-4-5.7.1c-4.9.1-5.8-.1-5.8-1.6 0-2.7 3.3-5 7.3-5 2.8 0 3.7-.4 3.7-1.6 0-1.4-.9-1.6-5.2-1.2-5.9.6-8.8 3.2-8.8 7.8 0 4 2.1 5.3 7.4 4.5 4.4-.7 4.6-.6 4.6 1.8 0 2.8-3.5 7.7-5.5 7.7-.7 0-2.2-1.1-3.3-2.5-2.3-2.9-3-3.1-4.6-1.1-.6.9-3.3 1.6-6.6 1.8l-5.5.3v-4c0-3.8.2-4 3.3-4.3 1.7-.2 3.2-.7 3.2-1.2 0-1.2-2.6-1.9-4.9-1.3-1.8.5-2.1.1-2.1-2.5 0-3.5 1.9-4.5 7.8-4 2.8.2 3.7-.1 3.7-1.2 0-1.6-6-2.2-11.7-1.3zM46.6 567.4c-.5 3.4-1.2 4.5-2.9 5-4.8 1.3-5.7.8-5.7-2.9 0-2.4-.5-3.5-1.5-3.5-1.2 0-1.5 1.7-1.5 9.5 0 10 1.4 12.7 2.6 5 .5-3.8 1-4.5 2.9-4.5 1.3 0 3-.3 3.9-.6 1.1-.4 1.5.4 1.8 3.8.2 2.8.8 4.4 1.8 4.6 1.2.2 1.5-1.5 1.6-10.3.2-7.9-.1-10.5-1.1-10.5-.7 0-1.5 1.8-1.9 4.4zM217.1 565.6c-2.3 3-2.7 6.4-.9 8.2.7.7 3.1 1.2 5.5 1.2 3.9 0 4.3.2 4.3 2.4 0 5-5.9 7.5-8.1 3.5-.7-1.4-1.4-1.8-2.1-1.1-.7.7-.4 1.9.7 3.6 3 4.6 9.6 3 12.1-2.9 1-2.4 1.1-4.1.4-6-1-2.6-2.1-3-7.7-2.6-3.5.3-4-.7-2.2-4 .8-1.6 1.9-2 5.2-1.7 3.2.2 4.2-.1 4.2-1.2 0-1.1-1.3-1.6-4.6-1.8-4.1-.3-5 .1-6.8 2.4zM265.5 573.2c.7 11.6 1.1 13.2 2.5 12.3 1.1-.7 1.3-10.8.4-17.9-.5-3-1.2-4.6-2.1-4.6-1.1 0-1.3 1.8-.8 10.2z"/><path d="M231.2 575.2c.2 7 .7 10.3 1.6 10.6.9.3 1.2-2.2 1.2-10.2 0-8.9-.3-10.6-1.5-10.6-1.3 0-1.5 1.6-1.3 10.2zM33 600.5c0 1 .7 1.5 1.8 1.3 2.1-.4 1.9-2.2-.2-2.6-1-.2-1.6.3-1.6 1.3zM39.7 599.6c-.9 1 .2 2.4 1.9 2.4.8 0 1.4-.7 1.4-1.5 0-1.5-2.1-2.1-3.3-.9zM95.7 602.5c-1.4 3-1.4 3.5-.2 3.5 1.6 0 4.8-5.4 3.8-6.4-1.2-1.2-1.9-.6-3.6 2.9zM383.3 600.9c-4.9 1.2-8.8 4-7.4 5.4.8.8 1.4.8 2.3-.1 3.1-3.1 3.8-1.4 3.8 9.3 0 8.9.2 10.5 1.6 10.5 1.4 0 1.5-1.4 1.3-10.3-.2-5.6 0-10.8.4-11.5.5-.6 2.4-1.2 4.3-1.2 2.4 0 3.4-.4 3.2-1.3-.5-1.5-5.1-1.8-9.5-.8zM158.2 602.6c-5.8 4.1-7 18.2-1.8 21.6 1.8 1.2 6.5.9 9.5-.7 2.6-1.3 3-1.3 4.1 0 .7.9 2.9 1.5 5.3 1.5 5.5 0 10.7-5.3 10.7-11.1s-4.2-10.2-9.9-10.3c-5.6-.1-8.2 3-8.9 10.8-.4 4.5-.8 5.6-2.9 6.5-1.3.6-3.3 1.1-4.3 1.1-3.9 0-5.2-7.1-2.6-13.5 1.4-3.3 2.4-4 5.4-3.6.6.1 1.2-.5 1.2-1.2 0-2.1-3.5-2.7-5.8-1.1zm22.3 5.9c4.3 4.3 2.4 11.3-3.6 13.4-2.5.9-3.3.7-4.9-.9-2.3-2.3-2.6-7.5-.9-11.4 1-2.2 2.1-2.8 6.2-3.5.4 0 1.9 1 3.2 2.4zM355.3 602.9c-3 1.4-4.4 2.8-4.9 4.7-1.1 4.1.7 6 5.3 5.6 5.2-.4 6.7 1.3 5.2 5.7-.6 1.7-2 3.6-3.2 4.3-1.8.9-2.4.7-4.2-1.6-2.5-3.2-3.7-3.3-3.3-.5.2 1.2 1.5 3.1 3 4.2 2.3 1.7 3.1 1.9 5.3.9 3-1.4 6.5-6.8 6.5-10 0-3.6-3.6-6.4-7.7-6-6.6.5-4.6-3.7 2.6-5.7 2-.6 3.6-1.5 3.6-2 0-1.8-3.9-1.5-8.2.4zM16.3 602.7c-3.5.7-7.3 5.9-7.3 10 0 3.9 3 9.5 6.3 11.8 5.3 3.7 12.1-.6 11.5-7.2-.4-4.2-2.4-5.9-6.2-4.9-3.2.8-2.5 2.6 1 2.6 1.9 0 2.4.5 2.4 2.4 0 2.6-2.3 5.6-4.4 5.6-3 0-7.6-6.1-7.6-10.1 0-4.5 3.1-7.3 8.4-7.5 5.2-.2 6.8-1 4.6-2.4-1.5-1-4.7-1.1-8.7-.3zM101.1 604.6c-2.5 3.2-2.8 8.2-.5 9.1.9.3 3.5.6 5.7.7 3.6.1 4.2.4 4.5 2.4.4 2.7-2.2 7.2-4.2 7.2-.7 0-2.1-.9-3.1-2-1.7-1.9-3.5-1.9-3.5.1 0 1.8 4 4.9 6.4 4.9 3.2 0 7.6-5.3 7.6-9.1 0-5.4-1.5-6.9-7-6.9-5.3 0-6.1-1-3.5-4.4 1.2-1.5 2.2-1.7 5.5-1.2 3.6.6 4.1.4 3.8-1.1-.2-1.4-1.5-1.9-4.9-2.1-4.1-.3-5 .1-6.8 2.4zM199.1 604.6c-1.1 1.4-2.1 3-2.4 3.7-.2.7-1.3.3-3.2-1.1-1.5-1.2-3.6-2.2-4.7-2.2-1.7 0-1.8.6-1.2 9.7.4 5.4.9 10 1.1 10.3 1.4 1.5 2.3-3.4 1.8-9.3l-.5-6.9 2.6 2.1c3.6 2.8 5.1 2.6 6.9-.9.9-1.7 1.9-3 2.4-3s1.2 3.6 1.6 8c.6 6.2 1 8 2.2 8 1.4 0 1.5-1.2.9-8-1.1-12.9-3.2-15.9-7.5-10.4zM210.2 603.6c-2.3 1.6-2.9 4.8-1.2 5.9.6.3 1 3.6 1 7.3 0 7.9.8 11.2 2.5 11.2.8 0 1.2-1.6 1.1-4.7l-.1-4.8 3.9-.6c7.3-1.2 11.2-9.3 6.6-13.9-2.5-2.5-10.5-2.7-13.8-.4zm12.3 3.8c1.8 2.9-1.4 7-5.8 7.4-3.6.3-3.7.2-3.7-3.2 0-1.9-.3-4.1-.6-4.9-1.2-3.2 8-2.6 10.1.7zM229 604.4c-1.3 3.5-1.3 17.2 0 19.7.6 1 2.1 1.9 3.3 1.9 3.2 0 10.3-2.7 9.7-3.7-.5-.8-1.7-.8-7.5-.2l-3 .4v-9.7c-.1-10.3-.8-12.8-2.5-8.4zM249.5 602.5c-.5.2-2.3.6-3.8.9l-2.8.7.3 10.9.3 10.9 8.3-.2c4.5-.1 8.2-.5 8.2-1 0-1.5-5.5-2.9-9.1-2.3-3.2.5-3.7.3-4.3-1.7-1.2-4.5-.7-5.6 2.9-6.3 4.4-.8 4.1-3-.3-2.6-2.9.3-3.2.1-3.2-2.6 0-2.5.5-3 3.1-3.6 1.7-.3 4.7-.6 6.5-.6 2.4 0 3.4-.5 3.4-1.5 0-1.1-1.1-1.5-4.2-1.4-2.4 0-4.7.2-5.3.4zM267.1 603.3c-5.8 1.3-8.2 3.7-3.7 3.7h2.6v10c0 8.2.3 10 1.5 10s1.5-1.8 1.5-10.4c0-11.3.1-11.5 6.8-11.6 3.1 0 2.3-2.4-.9-2.7-1.3-.1-4.8.4-7.8 1zM309.7 611.2c.6 10.5.4 10.6-5.4.9-2.1-3.5-4.3-6.3-4.8-6.2-.6.1-1 4-.9 8.9 0 6.8.3 8.7 1.5 8.7 1 0 1.4-1.2 1.2-4.8-.1-2.6 0-4.7.2-4.7s2.1 2.7 4.1 6c5.3 8.6 6.8 7.9 7.2-3 .4-10.1-.4-15-2.3-15-1.1 0-1.3 1.8-.8 9.2zM415.5 603.1c-1.6.5-4 .7-5.2.4-1.3-.3-2.3-.2-2.3.2-.1.5-.2 5.6-.3 11.6-.2 12.2-1.2 11.2 10.2 10.1 4.5-.5 6.1-1.1 6.1-2.2 0-1.2-1.1-1.4-6.5-.8l-6.5.7v-4c0-3.8.2-4 3.3-4.3 1.7-.2 3.2-.8 3.2-1.3 0-.6-1.5-1.1-3.2-1.3-2.7-.3-3.3-.8-3.3-2.7 0-2.5.8-2.9 7.3-4.1 3.9-.7 4.8-1.8 2.1-2.8-.9-.3-1.6-.6-1.7-.5-.1 0-1.5.5-3.2 1zM487.2 605.4l-3.8 3.4-2.3-2.4c-4.7-4.9-6.1-2.7-6.1 10.3 0 6.7.3 8.3 1.5 8.3s1.5-1.7 1.5-8.8c.1-8.6.1-8.7 1.9-6.5 2.5 3.1 3.9 2.9 7.8-.9 1.8-1.7 3.5-2.9 3.8-2.6.3.3.2 3.2-.4 6.5-.9 5.8-.3 12.5 1.2 12.4.4-.1 1-.1 1.5-.1 1 0 .9-20.2-.1-21.8-1.2-1.9-2.4-1.5-6.5 2.2zM48.2 603.9c-1 .6-1.3 3.5-1 11.7.3 10.8.3 10.9 2.8 11.2 5.7.7 13-7.5 13-14.4 0-3.7-3.2-7-8.1-8.4-4.1-1.2-5-1.2-6.7-.1zm8.6 4.1c3.6 2.2 4 4.2 1.8 9.5-1.4 3.2-6.7 7.1-8 5.8-.3-.4-.6-4.4-.6-9 0-9.4.7-10 6.8-6.3zM85.7 603.7c-.2.4-1 4.5-1.7 9-1.1 6.4-1.1 8.8-.2 10.8 1.1 2.4 1.6 2.6 6.9 2.3 3.5-.2 5.8-.8 6.1-1.6.3-1-.8-1.2-4.2-1.1-6.6.4-7.1-.5-5.5-10 .9-5.8 1-8.4.2-9.2-.6-.6-1.3-.7-1.6-.2zM129.6 613.7c.4 6 .8 11 1 11.2.1.1.7 0 1.3-.4 2.3-1.3.8-21.5-1.5-21.5-1.1 0-1.3 2.1-.8 10.7z"/><path d="M148.2 613c.1 5.5.1 10-.2 10-.8 0-6.6-9.8-8.5-14.3-.8-2-1.9-3.7-2.4-3.7-1.8 0-2.8 12.6-1.5 17.7 1.1 4.2 2.4 2.4 2.4-3.5v-5.7l2.9 5c1.6 2.7 4.1 6.1 5.5 7.4 2.3 2.2 2.8 2.3 4.1 1 2-2 .9-23.9-1.2-23.9-1.2 0-1.4 1.8-1.1 10zM286 603.6c-7 1.2-6.5.3-6.2 11.6.2 5.7.7 10.7 1.1 11.1 1.2 1.2 15.4-1.7 15.9-3.2.4-1.1-.7-1.3-4.9-.9-3 .3-6.2.9-7.1 1.3-1.6.6-1.8.1-1.8-3.9 0-4.4.1-4.5 4-5.7 2.2-.7 4-1.7 4-2.2 0-.5-1.7-.7-4-.4-3.7.5-4 .3-4-1.8s.6-2.4 6-3.2c3.4-.4 6.2-1.3 6.3-1.8.2-1.1-5.1-1.6-9.3-.9zM321.5 603.7c-7.5.9-7.1.1-6.5 11.7.3 5.7.8 10.7 1.1 11.1 1.1 1 15.5-.9 14.9-2-.3-.6-3.3-1-6.7-.9l-6.3.1v-4.3c0-4 .2-4.2 3.5-4.8 1.9-.4 3.5-1.1 3.5-1.6 0-.6-1.6-1-3.5-1-3 0-3.5-.3-3.5-2.4 0-2.2.5-2.4 6.8-3.2 3.7-.5 6.7-1.4 6.7-1.9 0-1.1-5.1-1.5-10-.8zM336.8 604.6c-2.9 1.5-4.2 4.6-3.6 8.5.3 2.2.7 2.4 6.1 2.1 6.6-.3 7.4 1.2 3.2 5.3-3 3.1-4.9 3.2-6.9.3-1.1-1.5-1.9-1.9-2.6-1.2-.7.7-.4 1.9 1 3.7 3 3.7 6.4 3.5 10.7-.8 2.8-2.8 3.4-4.1 3.1-6.7l-.3-3.3-5.7.1c-5 .1-5.8-.1-5.8-1.7 0-2.4 3.7-4.9 7.2-4.9 1.8 0 2.8-.5 2.8-1.5 0-2-5.5-1.9-9.2.1zM402 607.4v4.6h-4.5c-4.4 0-4.5-.1-4.5-3.1 0-2-.4-2.9-1.2-2.6-1 .3-1.2 2.9-1 9.8.4 11.2 1.8 13.7 2.8 5l.7-6.1h7.5l.4 5.5c.5 5.7 1.3 7.5 2.6 5.9 1.3-1.5-.1-22.7-1.5-23.2-.9-.2-1.3 1-1.3 4.2zM427.8 605c-7.3 5.7-5.5 20 2.4 20 6.1 0 11.8-5.9 11.8-12.2 0-4.5-2.3-7.5-6.8-8.8-4.8-1.3-4.5-1.3-7.4 1zm9.4 3.7c2.9 2.6 2.3 7.7-1.3 10.7-5.6 4.7-9.9 2.7-9.9-4.6 0-3.7.6-4.8 3.5-6.5 2.8-1.7 5.6-1.6 7.7.4zM445.5 603.7c-1.1.3-2.2.9-2.5 1.3-1.1 1.7.5 19.3 1.8 19.8.8.2 1.2-.7 1.2-2.8 0-3 .2-3.2 2.8-2.5 3.2.8 6.2 3.3 6.2 5.2 0 .7.7 1.3 1.5 1.3s1.5-.9 1.5-2c0-2.4-4.2-7-6.5-7-2.5 0-1.7-1.7 1.5-3 1.7-.7 3.7-2.2 4.5-3.4 1.5-2 1.5-2 1.7.9.1 1.7.2 5.2.2 8l.1 5 7.3.1c5.2.2 7.2-.1 7.2-1.1 0-1.5-6.5-2.7-9.7-1.9-2.1.6-2.3.3-2.3-2.9 0-3.6 1.2-4.7 5.2-4.7 1.1 0 1.8-.5 1.5-1.3-.2-.7-1.7-1.1-3.5-.9-2.8.3-3.2 0-3.2-2.2 0-2.6.7-2.9 8.8-3.8 2.7-.4 3.3-2.2.8-2.6-3.2-.6-10.5.9-12.1 2.4-.8.9-1.5 1.1-1.5.6 0-2.2-7.7-3.7-12.5-2.5zm7.9 2.9c2.6 1 1.8 3.1-1.8 4.8-1.9.9-3.9 1.6-4.5 1.6-1.2 0-1.5-5.2-.4-6.3.8-.9 4.6-.9 6.7-.1zM64.8 604.7c-.2.5-.2 5.4 0 10.9l.4 10.2 3.6.6c6.9 1.1 12.2.7 12.2-.9 0-1.1-1.3-1.5-5.2-1.6-2.9-.1-5.9-.1-6.5 0-.9.1-1.3-1.3-1.3-4.2 0-4.3.1-4.5 3.5-5.1 1.9-.4 3.5-1.1 3.5-1.6 0-.6-1.6-1-3.5-1-3.1 0-3.5-.3-3.5-2.5 0-2.1.5-2.5 3.3-2.6 6.1-.2 7-.4 7.4-1.7.4-.9-1.4-1.2-6.6-1.2-3.8 0-7.1.3-7.3.7zM32 607.7c-1.8 2.3-2.1 3.8-1.8 8.5.6 8.4 4.9 11.9 10.7 8.8 2.2-1.1 5.1-7.9 5.1-11.9 0-7.5-9.4-11.2-14-5.4zm10.1 2.4c2.2 4.2-1.3 12.9-5.1 12.9-2.6 0-4-2.9-4-8.2 0-3.5.4-4.5 2.3-5.4 3.5-1.8 5.5-1.6 6.8.7zM59.5 643.3c-3 4.7-4.6 21.2-2 21.2.6 0 1.2-2 1.5-4.5l.5-4.5h10l.9 4.7c.6 3.1 1.4 4.8 2.4 4.8 3.2 0-1.5-16.5-6.1-21.8-2.6-2.8-5.3-2.8-7.2.1zm7.3 6.6c-.2 1-1.6 1.7-3.7 1.9-3.2.3-3.3.2-2.6-2.5.3-1.5 1.2-3.4 1.8-4.1.9-1.2 1.4-1 2.9.9 1.1 1.2 1.7 2.9 1.6 3.8zM88 650.7c-.1 9.1-.2 9.7-1.6 7.8-.9-1.1-2.9-4.8-4.5-8.3-1.7-3.7-3.4-6.2-4.4-6.2-1.3 0-1.5 1.6-1.4 10.5 0 5.8.5 10.5.9 10.5 1.7 0 2.3-2.4 2.2-7.9l-.1-5.6 2.5 5c3.1 6.3 6.1 9 8 7.4 2.1-1.7 2-22.9-.1-22.9-1.2 0-1.5 1.8-1.5 9.7zM229.5 641.7c-3.3.8-5.5 3.3-4.6 5.2 1.2 2.3 2 15 1 15.6-.4.3-1.5-1.6-2.3-4.3-2.1-7.4-5.1-12.6-8-14.2-2.4-1.2-2.9-1.2-4.6.6-1.9 1.8-4.2 9.4-5.5 18.3-.9 5.8 1.6 5.2 2.9-.7.8-3.7 1.3-4.3 4.5-5.2 6.2-1.7 6.8-1.4 8.1 4 .9 3.8 1.7 5 2.9 4.9.9-.2 2.6.1 3.8.5 2.7.9 9.8-2.5 11.4-5.5 2.3-4.3 2.9-8.3 1.8-12.1-1.3-5.1-6.4-8.2-11.4-7.1zm5.7 3.7c4.3 3.2 3.9 11.4-.7 15.3-1.4 1.3-3 2.3-3.5 2.3s-1.1-2.6-1.5-5.8c-.3-3.1-.7-7.1-1-8.9-.2-1.7-.1-3.4.2-3.7 1.1-1 4.7-.6 6.5.8zm-17.2 6.2c0 1.3-6.6 3.1-7.6 2.1-.3-.3.2-2.2 1.1-4.3l1.5-3.7 2.5 2.3c1.4 1.3 2.5 2.9 2.5 3.6zM403.6 642.6c-.3.9-.6 5.1-.6 9.5 0 4.3-.4 7.9-.8 7.9-.5 0-1.9-2.2-3.1-4.9-3.4-7.1-6.6-10.9-8.1-9.4-1.4 1.3-.4 20.3 1 20.3 1.3 0 1.9-4 1.3-9.4-.6-5.9.1-5.6 4.2 1.9 4.7 8.6 7 9.9 7.9 4.2 1.2-7.6 1.2-21.7 0-21.7-.6 0-1.5.7-1.8 1.6zM414.2 643c-3.6 2.2-7.1 8.7-7.2 13.2 0 4 2 7.8 5.1 9.4 4 2 6.4 1.8 9.6-1 3.5-3 2.3-4.6-1.6-2.3-3.7 2.2-5.4 2.1-7.5-.2-4.2-4.6-2.2-13.3 3.7-16.9 2.4-1.5 2.9-1.5 3.7-.2.8 1.2 1 1.2 1.6-.4.4-1.1.2-2.1-.7-2.7-2-1.3-3-1.1-6.7 1.1zM93.6 643.5c-1.1 1.1-1.4 2.3-.9 3.4.4.9.9 5.8 1.1 10.8.3 8.6.5 9.3 2.4 9.3 6.7 0 12.9-6.7 13.6-14.5.3-4.4.1-5.3-2.2-7.4-3.4-3.2-11.5-4.1-14-1.6zm12 3.6c1.8 1.5 1.8 6.3-.1 9.9-1.4 2.6-7.2 7.7-7.9 6.9-.2-.2-.6-4.5-.8-9.6-.4-6.3-.2-9.3.6-9.6 1.5-.5 6.4.9 8.2 2.4zM127 645.5c-4.3 6.9-6.6 20.5-3.5 20.5 1.1 0 1.5-1.1 1.5-3.9 0-4.4 1-5.1 7.5-5.1h4.4l.3 4.7c.4 6.5 2.8 7 2.8.6 0-9.5-4.8-20.3-9-20.3-1 0-2.8 1.6-4 3.5zm6.5 2.5c2.5 4.8 2 6-2.5 6-2.5 0-4-.5-4-1.3 0-1.3 3.7-7.7 4.5-7.7.2 0 1.1 1.3 2 3zM143.5 643c-.4.6-.9 5.2-1.2 10.3-.5 8.2-.3 9.5 1.4 11.6l2 2.5 6.2-1.9c3.3-1 6.1-2.2 6.1-2.6 0-1.5-2.6-1.6-7-.3-3.5 1-4.6 1.1-5.3.1-.4-.7-.6-5.3-.3-10.4.5-8.4-.2-12-1.9-9.3zM255.5 643.4c-1.3.9-1.6 1.8-1 3.2.5 1 1.1 5.9 1.4 10.9l.6 9 3 .3c8.7.8 17-13.4 12-20.5-2.6-3.8-12.4-5.6-16-2.9zm13.3 4.2c1.7 2.4.9 7.9-1.6 11.4-2 2.6-6.8 5.8-7.5 5-.2-.3-.7-4.7-1-9.9l-.6-9.3 4.6.5c2.9.3 5.2 1.2 6.1 2.3z"/><path d="M277.7 643.8c-3.5 3.8-6.5 23-3.4 22 .6-.3 1.4-2.2 1.7-4.4l.5-3.9h5c4.9 0 4.9 0 5.8 3.8.5 2.2 1.5 3.7 2.4 3.7 2.2 0 .9-6.9-2.8-15-3.9-8.4-6-9.8-9.2-6.2zm5.3 5.3c1.2 2.3 2 4.2 1.8 4.4-.2.1-2 .5-4 .8-2.9.4-3.8.2-3.8-.9 0-1.8 2.7-8.4 3.4-8.4.3 0 1.5 1.8 2.6 4.1zM293 643.2c-1.9.5-4.1 1.5-4.8 2-2 1.7.1 3 3 1.9 2.5-.9 2.6-.8 3.2 4.2.3 2.9.6 7.1.6 9.4 0 3.3.4 4.3 1.7 4.3 1.4 0 1.5-1.1.9-9.9l-.6-10 3.7-.3c2-.2 3.8-.9 4.1-1.6.5-1.5-6.6-1.5-11.8 0zM337.9 644.3c-5.9 4-4.8 11.3 1.5 10.4 1.7-.2 3.9-.7 4.8-1.2 4.1-1.7 3.4 6.4-.8 9.1-2.4 1.6-2.7 1.6-5.4-.5-3.4-2.5-4-2.6-4-.7 0 1.9 4.8 5.6 7.2 5.6 1.1 0 3.5-1.5 5.4-3.4 2.6-2.6 3.4-4.2 3.4-6.9 0-4.3-2.4-7.1-5.4-6.3-6.6 1.9-7.6 1.9-7.6-.2 0-2.7 2-4.1 7.1-5 5.6-1 6.4-3.2 1.1-3.2-2.4 0-5.2.9-7.3 2.3z"/><path d="M355.7 644.6c-6.4 6.4-5.9 20.3.9 22 3.2.8 7.3-.5 8.8-2.8 1.6-2.6.1-3.2-3.4-1.2-2.3 1.4-3.5 1.6-4.7.8-6-3.8-2.1-19.6 4.4-17.9 2 .5 2.4.2 2.1-1.2-.5-2.9-5-2.8-8.1.3zM378.5 643.4l-5 1.1.3 10c.2 5.5.8 10.4 1.2 10.9.5.5 2.2.4 4.1-.3 1.7-.6 4.7-1.1 6.6-1.1 2.3 0 3.3-.4 3-1.3-.3-.8-2.3-1.1-6.1-1l-5.6.2v-3.4c0-3.1.3-3.5 3.5-4.1 4.4-.8 4-3-.4-2.6-2.7.2-3.1-.1-3.1-2.2 0-2 .7-2.7 3.8-3.5 2-.6 4.5-1.1 5.5-1.1.9 0 1.7-.7 1.7-1.5 0-1.8-2.4-1.8-9.5-.1zM158.6 645.2c-.3 1.3-.6 5.5-.6 9.4 0 5.5.4 7.7 1.8 9.4 1.8 2.2 2.1 2.3 8.5 1 3.7-.7 6.7-1.6 6.7-2.1 0-1.6-2-1.9-6.5-.9-7.1 1.6-7.8.6-7.3-10.2.3-6.4.1-8.8-.8-8.8-.6 0-1.4 1-1.8 2.2zM189.4 644.2c-1.4 2.2-.6 21 .8 21.9.7.5 3.1.9 5.4.9 8.5 0 13-9.1 6.2-12.6-1.9-1-2.7-1.9-2-2.2.7-.2 1.9-1.7 2.7-3.2 1.3-2.6 1.3-3-.1-4.4-1.9-1.9-11.9-2.2-13-.4zm10.4 2.3c.8.7-2.7 4.3-4.9 5-3.1 1-2.1 3.2 1.7 4.2 2.1.4 4.2 1.6 4.8 2.5 1.6 2.5-1.8 5.8-6.1 5.8H192V644.7l3.6.6c2 .3 3.9.9 4.2 1.2zM308.2 643.7c-1.6.6-3.7 5.5-4.6 10.8-.4 2.2-.9 5.2-1.2 6.7-.4 2.1-.2 2.8 1 2.8.9 0 1.8-1.3 2.2-3.5.6-3.1 1-3.5 4.9-4.1 2.4-.3 4.8-.3 5.4 0 .5.4 1.3 2.7 1.7 5.2.7 4.9 2.7 5.5 3.2 1.1.4-2.9-3.8-12.9-6.6-16-2.2-2.5-4.4-3.5-6-3zm4.3 5.9c1.9 3 2 2.9-2.2 3.7-3.5.7-3.8.2-2.3-3.7 1.2-3.3 2.3-3.3 4.5 0zM428.8 643.7l-2.8.4v9.9c0 5.4-.4 10.1-1 10.5-.5.3-.7 1.2-.4 1.9.4 1.1 1.6 1.1 6.2.1 3.1-.6 7.2-1 9-.8 2.3.3 3.2 0 3.2-1 0-2.1-4-2.8-9.4-1.8l-4.6.8v-4.2c0-4.5 1-5.5 5.6-5.5 2.6 0 3.3-1.5 1.1-2.3-.7-.3-2.6-.3-4.1 0-2.5.5-2.7.3-2.4-2.3.3-2.8.5-2.9 6.1-3.2 4-.2 5.7-.7 5.4-1.5-.4-1.2-7-1.8-11.9-1zM367.7 644.7c-.7 1.2.7 20 1.5 20.8.4.4 1.1.4 1.7.1.9-.6.9-2.5-.5-16.4-.5-4.7-1.5-6.4-2.7-4.5zM446.5 663c-.8 1.3.4 3.2 1.6 2.5 1.2-.8 1.2-3.5 0-3.5-.6 0-1.3.4-1.6 1z"/></svg>